<?xml version="1.0" encoding="utf-8"?>
<!-- Generator: Adobe Illustrator 27.5.0, SVG Export Plug-In . SVG Version: 6.00 Build 0)  -->
<svg version="1.1" id="_x3C_Layer_x3E_" xmlns="http://www.w3.org/2000/svg" xmlns:xlink="http://www.w3.org/1999/xlink" x="0px"
	 y="0px" viewBox="0 0 2760 1840" style="enable-background:new 0 0 2760 1840;" xml:space="preserve">
<rect style="fill:#FFFFFF;" width="2760" height="1840"/>
<g>
	<g>
		<path style="fill:#DAEBE8;" d="M2638.8,591.914v699.68c0,2.678-0.081,5.337-0.252,7.97c-0.099,1.614-0.234,3.228-0.406,4.824
			c-10.829,105.14-154.811,175.657-327.375,190.345c-209.459,17.825-425.257,10.405-866.194-8.25
			c-247.599-10.477-745.428,6.88-993.92,8.25c-181.157,1.001-328.034-90.948-328.034-203.139v-699.68
			c0-112.191,147.183-209.748,328.034-203.148c167.957,6.131,414.997,30.394,672.513,15.535
			c201.543-11.622,522.183-22.099,803.377-23.028c146.146-0.478,281.635,1.632,384.224,7.493
			C2491.166,399.08,2638.8,479.723,2638.8,591.914z"/>
	</g>
	<g>
		<path style="fill:#B8D5DC;" d="M2638.547,1299.563c-0.099,1.614-0.234,3.228-0.406,4.824
			c-10.829,105.14-154.811,175.657-327.375,190.345c-209.459,17.825-425.257,10.405-866.194-8.25
			c-247.599-10.477-745.428,6.88-993.92,8.25c-181.157,1.001-328.034-90.948-328.034-203.139v-4.59
			c304.23-30.908,730.362-50.122,1202.063-50.122C1857.414,1236.882,2332.018,1261.388,2638.547,1299.563z"/>
	</g>
	<g>
		<g>
			<path style="fill:#ACC9C5;" d="M1963.987,1162.998c0,0-297.384,21.628-313.605-113.547
				c-16.221-135.175,135.174-151.396,140.582-275.756c5.407-124.361-21.628-313.605,124.361-346.047
				c145.989-32.442,102.733,113.547,189.245,200.058s81.105,156.803,81.105,270.349S2477.65,1184.626,1963.987,1162.998z"/>
		</g>
		<g>
			<path style="fill:#68A1BF;" d="M1945.062,1284.655c0,0-9.913-11.715-4.506-74.797s0-510.059,16.221-511.861
				c8.606-0.956,6.719,179.138,6.308,337.035C1962.722,1174.751,1978.405,1285.556,1945.062,1284.655z"/>
		</g>
		<g>
			<g>
				<path style="fill:#68A1BF;" d="M1947.153,1047.043c-80.323-40.13-113.061-130.739-114.413-134.541l10.18-3.633
					c0.317,0.929,32.716,90.356,109.048,128.5L1947.153,1047.043z"/>
			</g>
		</g>
		<g>
			<g>
				<path style="fill:#68A1BF;" d="M1950.955,912.291l-2.788-10.476c70.27-18.84,95.171-91.243,95.404-91.961l10.265,3.379
					C2052.759,816.444,2026.801,891.93,1950.955,912.291z"/>
			</g>
		</g>
	</g>
	<g>
		<g>
			<path style="fill:#ACC9C5;" d="M1464.256,1160.013c0,0-148.692,13.157-156.802-69.076c-8.11-82.233,67.587-92.101,70.291-167.755
				c2.703-75.654-10.814-190.78,62.18-210.516s51.366,69.076,94.622,121.705c43.256,52.629,40.552,95.39,40.552,164.466
				S1721.087,1173.17,1464.256,1160.013z"/>
		</g>
		<g>
			<path style="fill:#68A1BF;" d="M1454.793,1234.022c0,0-4.956-7.127-2.253-45.502c2.703-38.375,0-310.292,8.11-311.388
				c4.303-0.582,3.359,108.978,3.154,205.034C1463.623,1167.163,1471.465,1234.571,1454.793,1234.022z"/>
		</g>
		<g>
			<g>
				<path style="fill:#68A1BF;" d="M1455.839,1089.473c-40.162-24.413-56.53-79.535-57.206-81.848l5.09-2.21
					c0.158,0.565,16.358,54.967,54.524,78.173L1455.839,1089.473z"/>
			</g>
		</g>
	</g>
	<g style="opacity:0.4;">
		<path style="fill:#FFFFFF;" d="M1437.535,499.208c0,0-21.782-41.893-76.898-36.644c-55.116,5.249-48.555,47.243-74.801,43.306
			c-26.246-3.937-62.99,0-70.864,26.246c-7.874,26.246-43.306,11.811-44.618,34.12c-1.312,22.309,40.681,38.057,89.236,18.372
			c48.555-19.684,72.176,15.292,140.415,8.958c68.239-6.334,76.694-14.208,117.084-10.271s39.432-23.719,21.059-42.092
			C1519.776,522.831,1445.409,524.58,1437.535,499.208z"/>
	</g>
	<g style="opacity:0.6;">
		<path style="fill:#FFFFFF;" d="M1082.111,623.526c0,0-15.131-29.101-53.418-25.455c-38.287,3.646-33.729,32.817-51.961,30.083
			c-18.232-2.735-43.757,0-49.226,18.232c-5.47,18.232-30.083,8.204-30.994,23.702c-0.912,15.497,28.26,26.436,61.989,12.762
			c33.729-13.674,50.138,10.623,97.541,6.223c47.403-4.4,53.276-9.869,81.334-7.135c28.058,2.735,27.392-16.476,14.629-29.239
			C1139.24,639.936,1087.581,641.151,1082.111,623.526z"/>
	</g>
	<g style="opacity:0.6;">
		<path style="fill:#FFFFFF;" d="M544.293,588.202c0,0-13.856-26.649-48.917-23.31c-35.061,3.339-30.887,30.052-47.583,27.548
			c-16.696-2.505-40.07,0-45.078,16.696c-5.009,16.696-27.548,7.513-28.383,21.704c-0.835,14.191,25.878,24.209,56.765,11.687
			c30.887-12.522,45.913,9.728,89.322,5.699c43.409-4.029,48.787-9.038,74.48-6.533c25.694,2.504,25.084-15.088,13.396-26.776
			C596.609,603.229,549.302,604.342,544.293,588.202z"/>
	</g>
	<g style="opacity:0.4;">
		<path style="fill:#FFFFFF;" d="M935.823,557.758c0,0-20.83-36.078-58.937-30.15c-38.107,5.928-0.847,22.193-50.809,30.15
			c-49.963,7.957-60.971,24.894-38.107,38.443c22.864,13.549,60.125-24.558,100.772-5.928
			C929.389,608.904,983.75,592.989,935.823,557.758z"/>
	</g>
	<g>
		<path style="fill:#C7DDDA;" d="M2638.8,591.914v699.68c0,4.319-0.216,8.584-0.658,12.794h-711.599V381.273
			c146.146-0.478,281.635,1.632,384.224,7.493C2491.166,399.08,2638.8,479.723,2638.8,591.914z"/>
	</g>
	<g>
		<g>
			<path style="fill:#ACC9C5;" d="M2476.541,642.189v649.675c0,9.35-7.583,16.933-16.933,16.933h-395.35
				c-9.35,0-16.933-7.583-16.933-16.933V642.189c0-9.35,7.583-16.933,16.933-16.933h395.35
				C2468.958,625.256,2476.541,632.839,2476.541,642.189z"/>
		</g>
		<g>
			<path style="fill:#68A1BF;" d="M2516.599,599.373l-539.861,5.845c-10.137,0.11-18.319-8.255-17.987-18.386l2.484-75.736
				c0.318-9.704,8.352-17.363,18.06-17.218l537.376,8.014c9.729,0.145,17.539,8.073,17.539,17.802v61.877
				C2534.21,591.328,2526.356,599.268,2516.599,599.373z"/>
		</g>
		<g style="opacity:0.4;">
			<path style="fill:#68A1BF;" d="M2476.541,926.15v222.804l-234.543,159.842h-177.74c-9.35,0-16.933-7.583-16.933-16.933v-73.204
				L2476.541,926.15z"/>
		</g>
		<g style="opacity:0.4;">
			<polygon style="fill:#68A1BF;" points="2476.541,666.181 2476.541,858.717 2047.326,1124.962 2047.326,932.435 			"/>
		</g>
		<g>
			<rect x="2253.823" y="625.256" style="fill:#331832;" width="6.473" height="679.13"/>
		</g>
		<g>
			<circle style="fill:#331832;" cx="2221.793" cy="966.696" r="11.27"/>
		</g>
		<g>
			<circle style="fill:#331832;" cx="2293.022" cy="966.696" r="11.27"/>
		</g>
	</g>
	<g>
		<g>
			<g>
				<g>
					<g>
						<path style="fill:#FFB27D;" d="M1982.195,1107.794L1982.195,1107.794c1.855,0.56,2.914,2.535,2.354,4.389l-8.687,28.785
							c-0.56,1.855-2.535,2.914-4.389,2.354l0,0c-1.855-0.56-2.914-2.535-2.354-4.389l8.687-28.785
							C1978.365,1108.294,1980.34,1107.234,1982.195,1107.794z"/>
					</g>
					<g>
						<path style="fill:#FFB27D;" d="M1973.563,1105.189L1973.563,1105.189c1.855,0.56,2.914,2.535,2.354,4.389l-9.715,32.193
							c-0.56,1.854-2.535,2.914-4.389,2.354l0,0c-1.855-0.56-2.914-2.535-2.354-4.389l9.715-32.193
							C1969.733,1105.689,1971.708,1104.629,1973.563,1105.189z"/>
					</g>
					<g>
						<path style="fill:#FFB27D;" d="M1976.51,1088.039l0.292,0.422c1.449,2.093,0.922,4.991-1.171,6.44l-18.15,12.567
							c-2.093,1.449-4.991,0.922-6.441-1.171l-0.292-0.422c-1.449-2.093-0.922-4.991,1.171-6.441l18.15-12.567
							C1972.162,1085.418,1975.06,1085.945,1976.51,1088.039z"/>
					</g>
					<g>
						<path style="fill:#FFB27D;" d="M1964.931,1102.584L1964.931,1102.584c1.855,0.56,2.914,2.535,2.354,4.389l-7.787,25.805
							c-0.56,1.854-2.535,2.914-4.389,2.354l0,0c-1.854-0.56-2.914-2.535-2.354-4.389l7.788-25.805
							C1961.101,1103.084,1963.077,1102.024,1964.931,1102.584z"/>
					</g>
					<g>
						<path style="fill:#FFB27D;" d="M1992.999,1093.167c0,0,4.744,19.562-4.114,30.79c-3.066,3.886-28.266-4.481-29.154-9.955
							s6.071-22.39,6.071-22.39L1992.999,1093.167z"/>
					</g>
					<g>
						<path style="fill:#FFB27D;" d="M1990.775,1110.355L1990.775,1110.355c1.851,0.558,2.908,2.53,2.349,4.38l-7.771,25.752
							c-0.559,1.851-2.53,2.908-4.38,2.349l0,0c-1.851-0.559-2.908-2.53-2.349-4.38l7.771-25.752
							C1986.953,1110.854,1988.925,1109.797,1990.775,1110.355z"/>
					</g>
				</g>
				<g>
					<g>
						<path style="fill:#FFB27D;" d="M1960.223,1093.537c0.795-39.275-1.121-95.767-14.767-141.855
							c-3.162-10.679-4.525-14.709-7.257-20.652c-2.198-4.782,3.727-14.096,11.868-17.946c7.639-3.612,18.69-1.652,20.208,0.726
							c2.582,4.044,4.986,11.51,8.703,23.354c12.915,41.152,17.629,92.979,14.553,158.779L1960.223,1093.537z"/>
					</g>
				</g>
				<g>
					<path style="fill:#331832;" d="M1907.884,1365.851c0,0,0.279,11.125,7.806,14.263c7.528,3.138,29.339,5.969,21.189,13.122
						c-4.676,4.104-26.716,1.453-32.938,1.453c-6.223,0-12.065,2.712-16.689-1.453c-5.087-4.582,0-27.384,0-27.384
						s5.37,2.797,10.198,2.672C1904.41,1368.342,1907.884,1365.851,1907.884,1365.851z"/>
				</g>
				<g>
					<path style="fill:#764678;" d="M1972.828,1030.123c0,0,1.502,50.205-14.52,146.516
						c-11.567,69.53-25.222,139.593-31.921,173.183c-2.396,12.015-12.502,20.801-24.478,21.281l-6.436,0.258
						c-12.949,0.52-23.459-10.604-22.513-23.828l16.251-227.247l4.006-74.795L1972.828,1030.123z"/>
				</g>
				<g>
					<path style="fill:#331832;" d="M1836.59,1365.851c0,0,0.279,11.125,7.806,14.263c7.528,3.138,29.339,5.969,21.189,13.122
						c-4.676,4.104-26.716,1.453-32.938,1.453c-6.223,0-12.065,2.712-16.689-1.453c-5.087-4.582,0-27.384,0-27.384
						s5.37,2.797,10.198,2.672C1833.116,1368.342,1836.59,1365.851,1836.59,1365.851z"/>
				</g>
				<g>
					<path style="fill:#764678;" d="M1901.535,1030.123c0,0,1.502,50.205-14.52,146.516
						c-11.567,69.53-25.222,139.593-31.921,173.183c-2.397,12.015-12.502,20.801-24.478,21.281l-6.436,0.258
						c-12.949,0.52-23.459-10.604-22.513-23.828l16.252-227.247l4.005-74.795L1901.535,1030.123z"/>
				</g>
				<g>
					<path style="fill:#331832;" d="M1814.052,1085.145c0.155,6.057,36.782,8.463,82.084,7.05
						c45.301-1.413,81.502-7.678,81.347-13.735c-0.155-6.057-36.607-9.613-81.908-8.2
						C1850.274,1071.672,1813.897,1079.087,1814.052,1085.145z"/>
				</g>
				<g>
					<path style="fill:#EF8062;" d="M1825.142,913.659c0,0,8.01-31.749,67.114-32.071c85.233-0.465,77.341,77.851,85.227,196.871
						c0,0-83.955-11.873-163.473,5.195C1814.01,1083.654,1806.634,962.171,1825.142,913.659z"/>
				</g>
				<g>
					<path style="fill:#EF8062;" d="M1803.326,909.106l38.602,21.358c0,0,84.523,7.676,106.961,3.979
						c22.438-3.697,28.594-20.173,28.594-20.173s-23.898-24.727-64.517-31.328c-3.817-0.625-7.774-1.084-11.879-1.352
						c-6.889-0.444-13.789-0.351-20.532,0.409C1829.073,887.801,1803.326,909.106,1803.326,909.106z"/>
				</g>
				<g>
					<path style="fill:#FFB27D;" d="M1884.13,874.322l4.462-14.399l1.298-4.192l7.636-24.648l1.005,24.518l0.601,14.716l0.19,4.658
						c0.129,3.162,2.057,3.827,4.402,6.575c0.95,1.113,7.032,7.864,0.13,10.913c-8.598,3.8-24.673-1.953-30.784-9.489
						C1873.118,882.964,1882.688,878.975,1884.13,874.322z"/>
				</g>
				<g>
					<path style="fill:#764678;" d="M1970.35,1083.359c0,0-49.085-14.441-150.742,5.381l-0.783,14.624l149.021,5.267
						L1970.35,1083.359z"/>
				</g>
				<g>
					<path style="fill:#331832;" d="M1936.981,1078.817c0,0-21.726-0.537-30.122,17.276c0,0,4.692-17.78-4.449-17.503
						c-3.78,0.114,3.78-2.437,3.78-2.437L1936.981,1078.817z"/>
				</g>
				<g>
					<path style="fill:#331832;" d="M1802.522,909.996c-3.273,4.63,1.548,13.778,10.768,20.432c9.22,6.654,19.347,8.294,22.62,3.663
						c3.273-4.631-1.548-13.778-10.768-20.432S1805.795,905.366,1802.522,909.996z"/>
				</g>
				<g>
					<g>
						<path style="fill:#FFB27D;" d="M1768.509,1107.334L1768.509,1107.334c-1.905,0.351-3.176,2.197-2.825,4.102l5.45,29.57
							c0.351,1.905,2.197,3.176,4.102,2.825l0,0c1.905-0.351,3.177-2.197,2.825-4.102l-5.45-29.569
							C1772.26,1108.254,1770.414,1106.983,1768.509,1107.334z"/>
					</g>
					<g>
						<path style="fill:#FFB27D;" d="M1777.376,1105.699L1777.376,1105.699c-1.905,0.351-3.177,2.197-2.825,4.102l6.095,33.069
							c0.351,1.905,2.197,3.176,4.102,2.825l0,0c1.905-0.351,3.177-2.197,2.825-4.102l-6.095-33.069
							C1781.127,1106.62,1779.281,1105.348,1777.376,1105.699z"/>
					</g>
					<g>
						<path style="fill:#FFB27D;" d="M1776.344,1088.328l-0.337,0.387c-1.672,1.92-1.469,4.859,0.451,6.531l16.648,14.496
							c1.92,1.672,4.859,1.469,6.531-0.451l0.337-0.387c1.672-1.92,1.469-4.859-0.451-6.531l-16.649-14.497
							C1780.955,1086.205,1778.016,1086.408,1776.344,1088.328z"/>
					</g>
					<g>
						<path style="fill:#FFB27D;" d="M1786.243,1104.065L1786.243,1104.065c-1.905,0.351-3.176,2.197-2.825,4.102l4.886,26.508
							c0.351,1.905,2.197,3.176,4.102,2.825l0,0c1.905-0.351,3.176-2.197,2.825-4.102l-4.886-26.508
							C1789.994,1104.985,1788.148,1103.714,1786.243,1104.065z"/>
					</g>
					<g>
						<path style="fill:#FFB27D;" d="M1759.388,1091.602c0,0-6.879,18.917,0.684,31.056c2.618,4.201,28.589-1.328,30.076-6.67
							c1.488-5.342-3.557-22.924-3.557-22.924L1759.388,1091.602z"/>
					</g>
					<g>
						<path style="fill:#FFB27D;" d="M1759.698,1108.931L1759.698,1108.931c-1.901,0.35-3.17,2.193-2.819,4.094l4.876,26.453
							c0.35,1.901,2.193,3.17,4.094,2.819l0,0c1.901-0.35,3.17-2.193,2.819-4.094l-4.876-26.453
							C1763.441,1109.849,1761.599,1108.58,1759.698,1108.931z"/>
					</g>
				</g>
				<g>
					<g>
						<path style="fill:#FFB27D;" d="M1791.923,1095.594c3.554-39.122,11.706-95.055,30.365-139.352
							c4.323-10.264,6.124-14.118,9.496-19.723c2.714-4.51-2.145-14.422-9.81-19.148c-7.193-4.435-18.393-3.709-20.165-1.513
							c-3.013,3.734-6.229,10.888-11.232,22.249c-17.387,39.471-27.804,90.459-32.024,156.196L1791.923,1095.594z"/>
					</g>
				</g>
				<g>
					<g>
						<path style="fill:#5C305D;" d="M1917.174,821.828c0,0,1.557,5.966,0,13.446c-1.557,7.48-9.165-10.906-9.165-10.906
							L1917.174,821.828z"/>
					</g>
					<g>
						<path style="fill:#FFB27D;" d="M1918.079,837.432c-1.899-14.463-13.161-24.911-25.156-23.336
							c-11.994,1.575-20.178,14.576-18.28,29.039c1.899,14.463,13.161,24.911,25.156,23.336
							C1911.794,864.896,1919.978,851.895,1918.079,837.432z"/>
					</g>
					<g>
						<path style="fill:#331832;" d="M1874.097,835.573l10.603-1.1c2.331-0.242,4.464-1.494,5.725-3.469
							c2.172-3.4,4.786-5.146,14.677-4.775c12.524,0.47,20.793-6.996,22.146-13.549c1.381-6.688-5.028-11.222-11.318-8.033
							s-3.59-4.632-9.639-5.462c-11.304-1.551-13.421,7.162-22.675,6.879c-12.134-0.371-33.87,8.849-23.562,30.21L1874.097,835.573z
							"/>
					</g>
					<g>
						<g>
							<path style="fill:#080435;" d="M1897.514,839.177c0.114-0.072,0.194-0.195,0.206-0.339c0.02-0.244-0.161-0.458-0.405-0.479
								c-0.144-0.012-3.452-0.603-5.118,2.913c-0.105,0.222-0.02,0.486,0.199,0.596c0.219,0.109,0.441-0.008,0.596-0.199
								c1.547-1.909,4.129-2.433,4.249-2.424C1897.34,839.252,1897.435,839.227,1897.514,839.177z"/>
						</g>
					</g>
					<g>
						<path style="fill:#080435;" d="M1895.589,844.873c0.279,1.022,1.106,1.687,1.848,1.484c0.742-0.202,1.117-1.195,0.838-2.217
							s-1.106-1.687-1.848-1.484C1895.685,842.858,1895.31,843.851,1895.589,844.873z"/>
					</g>
					<g>
						<g>
							<path style="fill:#080435;" d="M1913.94,837.859c0.103-0.018,0.193-0.096,0.24-0.221c0.079-0.212,0.002-0.481-0.172-0.6
								c-0.103-0.07-2.381-1.974-4.527,0.514c-0.135,0.157-0.142,0.431-0.009,0.621c0.133,0.19,0.327,0.175,0.49,0.066
								c1.637-1.085,3.674-0.49,3.76-0.432C1913.793,837.855,1913.87,837.871,1913.94,837.859z"/>
						</g>
					</g>
					<g>
						<path style="fill:#080435;" d="M1909.891,842.409c-0.132,1.051,0.38,1.981,1.143,2.077c0.763,0.095,1.488-0.679,1.62-1.731
							c0.131-1.051-0.38-1.981-1.143-2.077C1910.748,840.583,1910.023,841.358,1909.891,842.409z"/>
					</g>
					<g>
						<path style="fill:#5C305D;" d="M1860.053,836.274c0,0,7.321,15.801,17.704,16.96c0,0-8.396-12.042,9.3-19.38
							C1887.057,833.854,1870.81,831.298,1860.053,836.274z"/>
					</g>
					<g>
						<path style="fill:#FFB27D;" d="M1874.691,844.994c2.221,1.413,5.044,0.95,6.307-1.035c1.262-1.984,0.486-4.738-1.735-6.151
							c-2.221-1.413-5.044-0.95-6.307,1.035C1871.693,840.827,1872.47,843.581,1874.691,844.994z"/>
					</g>
					<g>
						<path style="fill:#5C305D;" d="M1887.057,833.854c0,0-1.417,13.26,1.281,15.766c2.699,2.507,20.519,3.585,28.836,0.372l0,0
							c0.138,8.516-5.864,16.034-14.263,17.445c-2.779,0.467-5.653,0.47-8.508-0.029h0c-5.822-1.018-11.482-3.426-13.882-8.826
							c-0.73-1.643,1.395-11.753,1.395-11.753s0.798-5.933-2.653-9.02C1879.263,837.808,1883.247,834.227,1887.057,833.854z"/>
					</g>
					<g>
						<path style="fill:#FFFFFF;" d="M1912.785,854.775c0,0-6.828,1.848-14.288,1.125c0,0,1.095,6.908,8.644,5.532
							C1911.53,860.631,1912.785,854.775,1912.785,854.775z"/>
					</g>
					<g>
						<path style="fill:#331832;" d="M1914.583,803.604c-3.285,0-3.58-2.835-3.583-2.864l0.595-0.055
							c0.01,0.098,0.295,2.429,3.153,2.319l0.018,0.597C1914.704,803.603,1914.643,803.604,1914.583,803.604z"/>
					</g>
					<g>
						<path style="fill:#FFFFFF;" d="M1908.65,822.719l-0.083-0.286c0.134-0.039,13.459-3.99,14.011-10.85
							c0.156-1.94-0.168-3.227-0.992-3.936c-1.322-1.137-3.726-0.576-5.847-0.081c-0.326,0.076-0.645,0.151-0.952,0.217
							l-0.063-0.292c0.305-0.066,0.622-0.14,0.947-0.216c2.19-0.511,4.676-1.091,6.109,0.146c0.901,0.776,1.26,2.146,1.095,4.187
							c-0.236,2.933-2.778,5.786-7.35,8.251C1912.094,821.709,1908.684,822.709,1908.65,822.719z"/>
					</g>
					<g>
						<path style="fill:#FFFFFF;" d="M1882.406,808.806c-1.255,0-2.587-0.085-3.996-0.276l0.04-0.296
							c13.006,1.765,19.274-5.551,19.335-5.625l0.23,0.191C1897.958,802.868,1892.876,808.806,1882.406,808.806z"/>
					</g>
				</g>
				<g>
					<path style="fill:#EC865C;" d="M1782.713,1007.495c-0.224,0-0.447-0.019-0.67-0.056c-1.512-0.249-2.777-1.317-3.561-3.007
						c-0.74-1.595-0.965-3.578-0.634-5.581c0.699-4.24,3.731-7.284,6.731-6.788c3.012,0.497,4.895,4.35,4.196,8.588
						c-0.33,2.004-1.18,3.81-2.393,5.083C1785.286,1006.885,1784.005,1007.495,1782.713,1007.495z M1783.928,993.473
						c-2.051,0-4.115,2.444-4.638,5.615c-0.283,1.718-0.099,3.397,0.519,4.728c0.573,1.237,1.452,2.012,2.471,2.18
						c1.022,0.164,2.101-0.283,3.041-1.271c1.012-1.063,1.725-2.595,2.009-4.312c0.558-3.385-0.811-6.548-2.991-6.908
						C1784.204,993.484,1784.065,993.473,1783.928,993.473z"/>
				</g>
			</g>
		</g>
		<g>
			<path style="fill:#331832;" d="M1822.854,1046.769c0,0,62.916-17.964,85.493-41.912c0,0,11.992,42.648-26.4,55.26
				C1843.554,1072.729,1822.854,1046.769,1822.854,1046.769z"/>
		</g>
		<g>
			<path style="fill:#331832;" d="M1940.742,890.854c0,0-0.461,108.095-127.832,151.008c-0.97,0.327-1.588,1.281-1.477,2.298
				l1.538,13.974c0,0,137.428-17.034,136.656-163.202C1949.628,894.932,1943.621,890.705,1940.742,890.854z"/>
		</g>
		<g>
			<path style="fill:#764678;" d="M1841.735,1045.644l-0.246-0.916c0.347-0.094,34.849-9.524,52.749-29.045l0.699,0.641
				C1876.848,1036.051,1842.084,1045.551,1841.735,1045.644z"/>
		</g>
	</g>
	<g>
		<g>
			<path style="fill:#FFB27D;" d="M430.656,1017.245c0,0,1.499,50.131-14.503,146.301c-11.552,69.427-39.038,148.475-45.729,182.015
				c-2.393,11.998-23.071,22.533-22.126,9.329l-1.138-247.616l4.002-74.685L430.656,1017.245z"/>
		</g>
		<g>
			<g>
				<path style="fill:#331832;" d="M501.279,1120.903c-0.183,0-0.361-0.099-0.451-0.273c-0.331-0.633-33.48-63.345-63.51-59.421
					c-6.106,0.793-10.575,3.549-13.281,8.189c-8.783,15.059,3.343,45.358,3.466,45.663c0.106,0.26-0.019,0.557-0.28,0.663
					c-0.261,0.105-0.557-0.02-0.663-0.28c-0.031-0.077-3.152-7.817-5.124-17.348c-2.661-12.862-2.082-22.689,1.72-29.21
					c2.873-4.927,7.593-7.85,14.029-8.687c12.938-1.676,27.746,7.92,44.007,28.536c12.053,15.283,20.452,31.264,20.536,31.424
					c0.13,0.249,0.034,0.556-0.215,0.686C501.439,1120.885,501.358,1120.903,501.279,1120.903z"/>
			</g>
			<g>
				<path style="fill:#EF8062;" d="M520.492,1117.527c-2.816,2.044-138.247-10.631-138.247-10.631s-32.134,92.166-29.659,95.403
					c2.475,3.237,159.511,13.879,162.953,11.047C518.981,1210.513,520.492,1117.527,520.492,1117.527z"/>
			</g>
			<g>
				<path style="fill:#331832;" d="M520.492,1117.527c2.333,1.04,3.05,9.927,6.882,7.552s6.74-12.89,8.238-9.369
					c1.498,3.521,11.615,93.882,8.611,97.348c-3.003,3.466-9.225-3.792-14.773-0.944c-5.549,2.848-11.508,3.245-13.91,1.23
					C513.138,1211.331,514.384,1114.804,520.492,1117.527z"/>
			</g>
			<g>
				<path style="fill:#331832;" d="M486.981,1126.361c-0.221,0-0.424-0.145-0.489-0.368c-0.197-0.688-20.098-68.815-52.442-64.598
					c-6.613,0.861-11.561,3.888-14.704,8.997c-5.286,8.592-4.622,21.698-3.134,31.179c1.621,10.328,4.546,18.712,4.575,18.795
					c0.093,0.265-0.046,0.555-0.311,0.649c-0.263,0.095-0.556-0.045-0.649-0.311c-0.03-0.084-2.982-8.542-4.618-18.959
					c-1.517-9.656-2.181-23.025,3.269-31.885c3.312-5.384,8.506-8.572,15.44-9.475c13.778-1.795,27.415,8.97,39.439,31.125
					c9.029,16.637,14.063,34.029,14.113,34.203c0.077,0.271-0.079,0.552-0.349,0.629
					C487.075,1126.355,487.027,1126.361,486.981,1126.361z"/>
			</g>
		</g>
		<g>
			<g>
				<path style="fill:#FFB27D;" d="M421.487,1076.327c-3.751-41.297-12.356-100.34-32.053-147.099
					c-4.564-10.835-6.465-14.903-10.024-20.819c-2.864-4.761,2.264-15.224,10.356-20.213c7.592-4.682,19.415-3.915,21.286-1.597
					c3.181,3.942,6.575,11.493,11.857,23.485c18.353,41.665,29.349,95.488,33.804,164.879L421.487,1076.327z"/>
			</g>
		</g>
		<g>
			<g>
				<path style="fill:#F4A677;" d="M453.223,1086.838c0,0,11.44-4.787,6.997-15.198c-5.661-13.265-25.432-24.363-21.961-15.909
					c3.078,7.495,7.564,13.941,7.564,13.941s-15.504-21.008-19.247-15.568c-3.743,5.441,6.832,18.658,6.832,18.658
					s-14.551-14.527-16.423-8.242c-1.872,6.285,6.108,17.981,6.108,17.981s-11.919-15.349-13.923-7.998
					c-2.004,7.351,9.698,17.046,13.717,22.286c3.798,4.952,8.22,4.107,12.734,0.101c0,0,6.813-1.375,9.101-4.737
					c0.877-1.289,2.901-1.068,3.845-1.628C450.375,1089.453,453.223,1086.838,453.223,1086.838z"/>
			</g>
		</g>
		<g>
			<path style="fill:#331832;" d="M370.424,1345.562c0,0,0.3,11.977,8.404,15.355c8.104,3.378,31.585,6.427,22.811,14.127
				c-5.034,4.418-28.761,1.563-35.459,1.563c-6.699,0-12.989,2.919-17.966-1.564c-5.476-4.933,0.001-29.481,0.001-29.481
				s5.781,3.011,10.979,2.876C366.684,1348.243,370.424,1345.562,370.424,1345.562z"/>
		</g>
		<g>
			<path style="fill:#FFB27D;" d="M382.158,1053.052l-104.801,292.507c-3.775,12.126-0.075,17.629-12.512,17.842l-5.421,0.093
				c-4.234,0.007-6.612-5.058-4.278-17.935l33.363-278.77c0.717-3.236,3.104-5.808,6.225-6.708
				C311.65,1055.202,383.819,1041.07,382.158,1053.052z"/>
		</g>
		<g>
			<path style="fill:#366F90;" d="M298.394,894.569c0,0,12-33.76,54.744-32.224c42.745,1.536,75.021,57.706,83.017,178.431
				c0,0-69.995-15.348-151.99,20.458C284.165,1061.234,279.619,943.775,298.394,894.569z"/>
		</g>
		<g>
			<path style="fill:#366F90;" d="M261.694,880.801l36.964,31.119c0,0,77.839,7.788,98.503,4.039
				c20.664-3.749,23.879-18.942,23.879-18.942s-19.658-26.963-57.065-33.66c-3.515-0.634-7.056-0.738-10.835-1.009
				c-6.345-0.45-10.607,0.18-16.863,0.13C278.126,862.01,261.694,880.801,261.694,880.801z"/>
		</g>
		<g>
			<path style="fill:#020202;" d="M341.852,1182.537l-1.441-0.474l19.395-58.96c4.479-13.615,13.693-24.979,25.946-31.999
				l0.754,1.317c-11.926,6.833-20.897,17.897-25.258,31.156L341.852,1182.537z"/>
		</g>
		<g>
			<g>
				<path style="fill:#EF8062;" d="M382.452,854.826l-0.115-0.484c0.055-0.013,5.502-1.343,7.042-5.057
					c0.799-1.927,0.418-4.182-1.132-6.701c-0.73-1.185-1.402-2.257-2.017-3.238c-4.243-6.765-5.831-9.297-4.669-14.834l0.487,0.102
					c-1.121,5.341,0.321,7.641,4.603,14.468c0.616,0.982,1.289,2.055,2.019,3.242c1.64,2.664,2.032,5.071,1.167,7.154
					C388.199,853.426,382.686,854.77,382.452,854.826z"/>
			</g>
			<g>
				<path style="fill:#EF8062;" d="M381.806,824.563c0,0-1.894,8.573,3.786,17.546c5.68,8.973-0.502,15.531-8.196,12.079
					c-7.694-3.451-10.628,6.358-20.464,0.936C347.096,849.701,381.806,824.563,381.806,824.563z"/>
			</g>
			<g>
				<path style="fill:#FFB27D;" d="M336.346,862.469c4.25-0.455,7.942-3.123,9.633-7.049l5.298-12.302l1.537-3.571l9.039-20.995
					l-1.567,21.758l-0.943,13.059l-0.268,3.723c-0.219,3.037,1.904,5.725,4.901,6.264l0.052,0.009
					c1.608,2.616,3.83,7.933-2.808,10.045c-7.8,2.483-20.415-3.657-24.943-10.934C336.3,862.474,336.323,862.472,336.346,862.469z"
					/>
			</g>
			<g>
				<path style="fill:#331832;" d="M351.254,842.758c0.004,0.12,0.011,0.24,0.023,0.36c0.518,7.014,8.021,10.29,8.021,10.29
					l0.046-0.039l0.942-13.059c-2.294-0.84-5.56-1.704-7.472-0.763C351.814,840.04,351.185,841.023,351.254,842.758z"/>
			</g>
			<g>
				<ellipse style="fill:#FFB27D;" cx="362.84" cy="822.033" rx="20.442" ry="25.22"/>
			</g>
			<g>
				<path style="fill:#FFB27D;" d="M345.132,825.836c2.315,2.211,5.553,2.438,7.232,0.506c1.678-1.931,1.162-5.289-1.154-7.5
					c-2.315-2.211-5.553-2.438-7.232-0.506C342.3,820.267,342.816,823.626,345.132,825.836z"/>
			</g>
			<g>
				<path style="fill:#E9633E;" d="M373.382,836.869c0,0-6.782,1.672-14.13,0.793c0,0,0.927,6.844,8.41,5.653
					C372.013,842.623,373.382,836.869,373.382,836.869z"/>
			</g>
			<g>
				<path style="fill:#FFFFFF;" d="M373.382,836.869c0,0-1.345,1.735-5.197,2.574c-3.852,0.839-8.933-1.781-8.933-1.781
					S367.967,838.094,373.382,836.869z"/>
			</g>
			<g>
				<g>
					<path style="fill:#080435;" d="M364.817,822.276c0.136-0.037,0.254-0.135,0.31-0.276c0.095-0.238-0.02-0.508-0.258-0.604
						c-0.14-0.056-3.27-1.666-6.019,1.342c-0.173,0.19-0.17,0.481,0.016,0.658c0.186,0.177,0.444,0.127,0.658-0.017
						c2.135-1.435,4.882-1.166,4.999-1.12C364.62,822.298,364.723,822.302,364.817,822.276z"/>
				</g>
			</g>
			<g>
				<path style="fill:#080435;" d="M361.138,827.386c-0.035,1.109,0.589,2.029,1.393,2.054c0.805,0.026,1.486-0.853,1.521-1.962
					c0.035-1.109-0.589-2.029-1.393-2.054C361.854,825.399,361.173,826.277,361.138,827.386z"/>
			</g>
			<g>
				<g>
					<path style="fill:#080435;" d="M381.414,824.7c0.14,0.018,0.286-0.028,0.392-0.137c0.179-0.184,0.175-0.477-0.008-0.657
						c-0.108-0.105-2.389-2.786-6.077-1.052c-0.233,0.109-0.34,0.38-0.235,0.614c0.105,0.234,0.362,0.287,0.614,0.235
						c2.521-0.514,4.958,0.782,5.049,0.869C381.224,824.645,381.317,824.688,381.414,824.7z"/>
				</g>
			</g>
			<g>
				<path style="fill:#080435;" d="M376.066,828.023c-0.455,1.012-0.229,2.1,0.506,2.43c0.734,0.33,1.699-0.222,2.154-1.234
					c0.455-1.012,0.229-2.1-0.506-2.43C377.485,826.458,376.521,827.011,376.066,828.023z"/>
			</g>
			<g>
				<path style="fill:#EF8062;" d="M371.52,801.384c0,0-0.441,8.75-11.368,10.242c-10.928,1.492-18.465,6.115-16.997,13.988
					c1.467,7.872,19.082,24.204,6.137,30.53c-12.946,6.326-10.191-5.47-24.226-2.735s-16.566-16.007-6.902-26.883
					c9.663-10.876,5.75-39.658,41.989-38.382c36.239,1.276,22.962,30.189,22.962,30.189S371.498,811.047,371.52,801.384z"/>
			</g>
			<g>
				<path style="fill:#FFFFFF;" d="M345.564,857.764l-0.111-0.274c2.674-1.079,4.247-2.609,4.808-4.676
					c1.554-5.727-5.237-14.53-11.228-22.297c-1.59-2.061-3.092-4.008-4.424-5.868c-3.708-5.177-4.036-11.353-0.855-16.119
					c3.533-5.294,10.248-7.533,17.528-5.846c13.463,3.122,19.086-4.982,19.141-5.064l0.245,0.164
					c-0.057,0.084-5.794,8.353-19.453,5.187c-7.156-1.661-13.753,0.533-17.216,5.722c-3.158,4.732-2.84,10.632,0.849,15.783
					c1.329,1.855,2.829,3.8,4.418,5.859c6.034,7.821,12.872,16.685,11.279,22.554C349.968,855.023,348.291,856.662,345.564,857.764z
					"/>
			</g>
			<g>
				<g>
					<path style="fill:#764678;" d="M379.992,841.228c-1.085,0-2.143-0.302-3.129-0.92c-4.398-2.734-6.054-10.991-3.694-18.392l0,0
						c1.446-4.536,4.148-7.927,7.218-9.058c1.834-0.67,3.674-0.513,5.311,0.526c4.398,2.721,6.054,10.964,3.694,18.379
						c-1.446,4.549-4.148,7.941-7.218,9.071C381.445,841.097,380.715,841.228,379.992,841.228z M374.037,822.205
						c-2.241,7.02-0.756,14.803,3.313,17.341c1.374,0.855,2.938,0.986,4.509,0.434c2.813-1.039,5.305-4.22,6.665-8.493
						c2.241-7.034,0.763-14.816-3.306-17.341c-1.38-0.855-2.932-0.999-4.516-0.434C377.889,814.751,375.397,817.919,374.037,822.205
						L374.037,822.205z"/>
				</g>
			</g>
			<g style="opacity:0.5;">
				<path style="fill:#331832;" d="M348.902,818.933c-1.64,7.201,0.981,14.933,5.855,17.269c4.874,2.336,10.154-1.607,11.794-8.808
					s-0.981-14.933-5.855-17.269C355.823,807.788,350.542,811.732,348.902,818.933z"/>
			</g>
			<g style="opacity:0.5;">
				<path style="fill:#331832;" d="M372.974,822.521c-1.645,7.234,0.545,15.078,4.89,17.521c4.345,2.443,9.201-1.442,10.845-8.676
					c1.644-7.234-0.545-15.078-4.89-17.521C379.474,811.402,374.619,815.286,372.974,822.521z"/>
			</g>
			<g>
				<g>
					<path style="fill:#764678;" d="M358.201,837.102c-1.098,0-2.196-0.25-3.26-0.762c-5.377-2.511-8.289-10.82-6.495-18.524l0,0
						c1.032-4.47,3.425-7.914,6.56-9.439c2.189-1.052,4.477-1.065,6.639-0.053c5.37,2.524,8.283,10.833,6.494,18.524
						c-1.039,4.483-3.438,7.927-6.58,9.452C360.456,836.826,359.325,837.102,358.201,837.102z M358.392,808.482
						c-1.006,0-2.012,0.237-2.984,0.71c-2.846,1.393-5.121,4.693-6.08,8.835l0,0c-1.696,7.297,0.992,15.145,5.995,17.498
						c1.9,0.868,3.924,0.855,5.837-0.039c2.853-1.38,5.134-4.693,6.1-8.848c1.689-7.297-0.999-15.145-5.995-17.498
						C360.324,808.705,359.358,808.482,358.392,808.482z"/>
				</g>
			</g>
			<g>
				<g>
					<path style="fill:#764678;" d="M373.938,825.216c-0.191,0-0.381-0.066-0.539-0.197l0,0c-0.092-0.079-2.294-1.801-6.094-1.078
						c-0.447,0.066-0.907-0.21-0.999-0.671c-0.092-0.46,0.21-0.907,0.671-0.986c4.588-0.96,7.382,1.328,7.507,1.42
						c0.355,0.302,0.408,0.841,0.105,1.196C374.424,825.11,374.181,825.216,373.938,825.216z"/>
				</g>
			</g>
		</g>
		<g>
			<g>
				<g>
					<path style="fill:#FFB27D;" d="M296.614,1002.917c0,0,11.667-12.599,21.717-12.404c10.05,0.196,22.739,8.044,16.483,9.245
						c-6.255,1.202-14.672,0.529-14.672,0.529s17.914,2.283,15.566,6.241c-2.348,3.958-17.909,1.823-17.909,1.823
						s21.101,4.415,17.672,7.436c-3.429,3.021-19.435-0.446-19.435-0.446s19.468,4.892,15.402,8.308
						c-4.065,3.416-16.062-4.147-18.41-0.189c-2.348,3.958-13.015,18.887-24.815,13.703L296.614,1002.917z"/>
				</g>
			</g>
			<g>
				<path style="fill:#E9845C;" d="M312.976,1001.184l-0.478-0.568c2.53-2.129,7.533-0.746,7.745-0.685l-0.202,0.713
					C319.994,1000.633,315.205,999.311,312.976,1001.184z"/>
			</g>
			<g>
				<path style="fill:#E9845C;" d="M309.135,1009.409l-0.357-0.65c4.101-2.246,8.925-0.823,9.128-0.761l-0.215,0.71
					C317.645,1008.693,312.957,1007.317,309.135,1009.409z"/>
			</g>
			<g>
				<path style="fill:#E9845C;" d="M307.993,1016.292l-0.524-0.526c2.506-2.497,8.418-0.852,8.668-0.78l-0.203,0.713
					C315.877,1015.683,310.191,1014.101,307.993,1016.292z"/>
			</g>
		</g>
		<g>
			<path style="fill:#331832;" d="M261.694,880.801c-3.1,4.443,3.204,10.442,16.116,19.78c12.911,9.338,18.538,12.651,21.637,8.208
				s-0.595-12.003-13.427-21.449C276.603,880.408,264.793,876.358,261.694,880.801z"/>
		</g>
		<g>
			<g>
				<path style="fill:#FFB27D;" d="M295.674,1033.131l11.395-25.123c1.557-3.433,0.281-7.547-2.899-9.367
					c-16.173-9.258-25.512-20.302-27.788-32.888c-3.16-17.475,6.698-37.55,15.364-50.596c4.435-6.676,4.913-13.161-2.093-21.326
					c-2.909-3.391-5.761-5.748-15.055-9.629c-4.49-1.875-8.96-2.474-11.473,0.754c-3.933,5.052-6.741,9.199-12.197,19.282
					c-12.956,23.95-17.805,47.858-14.02,69.139c4.645,26.119,21.233,47.28,49.345,62.983
					C289.704,1038.288,293.994,1036.836,295.674,1033.131z"/>
			</g>
		</g>
		<g style="opacity:0.5;">
			<path style="fill:#EC865C;" d="M250.763,971.456c-0.961,0-1.94-0.285-2.885-0.845c-2.21-1.31-3.993-3.998-4.77-7.19
				c-1.308-5.377,0.53-10.356,4.184-11.336c1.343-0.359,2.773-0.125,4.132,0.681c2.21,1.31,3.993,3.998,4.77,7.19
				c1.308,5.376-0.53,10.355-4.184,11.336C251.6,971.401,251.183,971.456,250.763,971.456z M248.53,953.743
				c-0.248,0-0.505,0.031-0.767,0.101c-2.601,0.697-3.922,4.885-2.885,9.145c0.663,2.726,2.132,4.99,3.929,6.055
				c0.646,0.384,1.646,0.778,2.731,0.489c2.601-0.698,3.923-4.886,2.886-9.145c-0.663-2.726-2.132-4.989-3.929-6.055
				C250.004,954.042,249.31,953.743,248.53,953.743z"/>
		</g>
		<g>
			<path style="fill:#331832;" d="M277.357,1345.559c0,0,0.3,11.977,8.404,15.355c8.104,3.378,31.585,6.427,22.811,14.127
				c-5.034,4.418-28.761,1.563-35.459,1.563c-6.699,0-12.989,2.919-17.966-1.564c-5.476-4.933,0.001-29.481,0.001-29.481
				s5.781,3.011,10.979,2.876C273.617,1348.241,277.357,1345.559,277.357,1345.559z"/>
		</g>
		<g>
			<path style="fill:#366F90;" d="M283.681,1046.538c0,0-45.338,234.474-34.031,242.47c11.307,7.995,29.051-13.063,63.727,0
				c34.677,13.063,51.106,0.471,76.193,1.869c25.087,1.398,37.645,11.196,45.522,4.119c7.877-7.077,1.062-254.22,1.062-254.22
				S382.478,1013.15,283.681,1046.538z"/>
		</g>
	</g>
	<g>
		<g>
			<g>
				<path style="fill:#331832;" d="M946.033,889.499c-8.049-1.848-16.535-12.097-16.944-26.265
					c-0.323-11.211,5.16-19.443,14.669-22.02c22.39-6.068,26.953-15.638,26.996-15.734l1.266,0.565
					c-0.184,0.415-4.774,10.24-27.899,16.508c-4.249,1.151-14.084,5.468-13.646,20.642c0.303,10.463,6.489,22.979,16.072,24.998
					l-0.285,1.357C946.186,889.534,946.109,889.516,946.033,889.499z"/>
			</g>
		</g>
		<g>
			<path style="fill:#DB6B55;" d="M1012.629,789.263c0,0-11.447-9.713-21.527-8.247c-10.08,1.466-15.944,8.98-15.394,14.295
				C976.258,800.625,1012.629,789.263,1012.629,789.263z"/>
		</g>
		<g>
			<path style="fill:#EF8062;" d="M1040.507,807.131c-1.624-17.033-17.11-22.457-44.918-17.443
				c-23.547,4.246-42.962,8.632-41.338,25.665c1.624,17.033,22.249,29,46.068,26.729
				C1024.137,839.812,1042.13,824.164,1040.507,807.131z"/>
		</g>
		<g>
			<path style="fill:#331832;" d="M1004.414,801.369c0,0,12.207-10.492,20.606,1.574c12.66,18.19-8.39,32.57,0.286,40.037
				c8.354,7.189,17.698,2.391,14.699,12.269c-2.998,9.878,18.308,5.91,9.658,25.152c-8.65,19.242-90.273,12.31-101.448,5.387
				c-8.033-4.976-22.971-25.076,1.223-44.087c9.073-7.129,20.141-15.424,24.899-21.468
				C982.268,810.161,983.096,803.853,1004.414,801.369z"/>
		</g>
		<g>
			<path style="fill:#FFB27D;" d="M1053.063,887.98c1.227,0.721,50.744,44.019,50.843,78.608
				c0.046,15.842-13.253,34.962-26.707,31.226c-22.672-6.296-48.745-33.564-48.745-33.564L1053.063,887.98z"/>
		</g>
		<g>
			<path style="fill:#68A1BF;" d="M947.804,898.529c0,0,11.951-33.623,54.523-32.094c42.572,1.529,55.945,56.073,78.154,175.126
				c0,0-89.987-3.445-138.96,8.732c0,0,4.989-35.68,2.58-59.233C940.614,956.971,936.746,927.511,947.804,898.529z"/>
		</g>
		<g>
			<path style="fill:#68A1BF;" d="M917.907,896.504l30.16,19.305c0,0,77.525,7.756,98.105,4.022
				c20.58-3.734,23.783-18.865,23.783-18.865s-19.578-26.854-56.834-33.524c-3.5-0.632-7.027-0.735-10.792-1.005
				c-6.319-0.448-12.638-0.255-18.832,0.412C946.689,870.822,917.907,896.504,917.907,896.504z"/>
		</g>
		<g>
			<path style="fill:#331832;" d="M917.477,897.171c-1.046,3.036,6.842,8.72,17.618,12.695c10.776,3.975,20.36,4.736,21.406,1.699
				c1.046-3.036-6.842-8.72-17.618-12.695C928.107,894.896,918.523,894.135,917.477,897.171z"/>
		</g>
		<g>
			<path style="fill:#FFB27D;" d="M985.905,870.634c-1.827-2.74,2.417-5.532,3.536-9.503l3.507-12.443l1.017-3.612l5.983-21.235
				l1.263,21.017l0.757,12.615l0.213,3.554c0.132,2.206,0.818,3.832,2.412,4.68c1.649,0.877,2.943,2.32,3.37,4.138
				c0.539,2.291,0.369,5.117-2.877,6.645C997.938,879.854,988.832,875.025,985.905,870.634z"/>
		</g>
		<g>
			<path style="fill:#331832;" d="M992.88,848.346c0.019,0.114,0.041,0.228,0.068,0.342c1.387,6.645,8.981,8.827,8.981,8.827
				l0.039-0.043l-0.757-12.615c-2.301-0.513-5.536-0.924-7.246,0.219C993.07,845.674,992.594,846.695,992.88,848.346z"/>
		</g>
		<g>
			
				<ellipse transform="matrix(0.9913 -0.1316 0.1316 0.9913 -100.1101 138.936)" style="fill:#FFB27D;" cx="1001.334" cy="827.045" rx="19.73" ry="24.342"/>
		</g>
		<g>
			<g>
				<path style="fill:#080435;" d="M1003.256,827.026c0.126-0.053,0.226-0.162,0.262-0.304c0.061-0.24-0.084-0.484-0.323-0.545
					c-0.141-0.036-3.34-1.179-5.589,2.048c-0.142,0.203-0.101,0.482,0.099,0.627c0.201,0.146,0.441,0.065,0.627-0.099
					c1.861-1.645,4.523-1.735,4.641-1.706C1003.071,827.073,1003.17,827.063,1003.256,827.026z"/>
			</g>
		</g>
		<g>
			<path style="fill:#080435;" d="M1000.385,832.383c0.107,1.066,0.821,1.867,1.594,1.789c0.773-0.078,1.313-1.005,1.206-2.07
				c-0.107-1.066-0.821-1.866-1.594-1.789S1000.278,831.317,1000.385,832.383z"/>
		</g>
		<g>
			<g>
				<path style="fill:#080435;" d="M1019.444,827.238c0.136-0.001,0.27-0.063,0.358-0.181c0.148-0.199,0.107-0.479-0.091-0.627
					c-0.117-0.087-2.639-2.362-5.948-0.235c-0.208,0.134-0.277,0.406-0.147,0.618c0.13,0.211,0.383,0.228,0.618,0.147
					c2.347-0.812,4.843,0.119,4.941,0.19C1019.255,827.21,1019.35,827.239,1019.444,827.238z"/>
			</g>
		</g>
		<g>
			<path style="fill:#080435;" d="M1014.749,831.097c-0.307,1.026,0.048,2.039,0.792,2.261c0.745,0.223,1.597-0.429,1.904-1.455
				c0.307-1.026-0.048-2.039-0.792-2.261C1015.908,829.419,1015.056,830.071,1014.749,831.097z"/>
		</g>
		<g>
			<path style="fill:#FFB27D;" d="M984.873,832.933c2.496,1.821,5.623,1.627,6.984-0.434c1.361-2.061,0.44-5.209-2.056-7.03
				c-2.496-1.821-5.623-1.627-6.984,0.434C981.457,827.964,982.377,831.111,984.873,832.933z"/>
		</g>
		<g>
			<g>
				<path style="fill:#331832;" d="M1006.508,811.051c0,0,8.852-3.809,10.995,5.243c1.796,7.584,3.626,10.368,6.059,9.217
					c2.433-1.151-5.234-20.387-5.234-20.387l-13.914-3.755l-3.601,0.617L1006.508,811.051z"/>
			</g>
		</g>
		<g>
			<g>
				<path style="fill:#331832;" d="M1006.508,811.051c0,0-7.63-5.233-13.421,1.999c-5.791,7.232-3.866,18.304-11.669,20.124
					c-7.802,1.82-13.546-23.96-3.24-29.637c10.307-5.677,16.709-7.21,19.941-4.514
					C1001.352,801.72,1006.508,811.051,1006.508,811.051z"/>
			</g>
		</g>
		<g>
			<path style="fill:#FFFFFF;" d="M972.87,833.655l-0.092-0.453c7.608-1.536,9.082-5.91,10.788-10.974
				c1.189-3.529,2.536-7.529,6.224-11c8.889-8.365,16.547-2.238,16.623-2.176l-0.294,0.357c-0.298-0.245-7.428-5.924-16.012,2.156
				c-3.603,3.391-4.874,7.163-6.103,10.81C982.253,827.576,980.74,832.067,972.87,833.655z"/>
		</g>
		<g>
			<g>
				<path style="fill:#FFFFFF;" d="M1018.44,842.783c-0.881,0-1.756-0.199-2.6-0.597c-4.458-2.103-6.72-9.309-5.044-16.064
					c0.994-4.006,3.227-7.176,5.973-8.48c1.775-0.844,3.623-0.861,5.346-0.047c4.457,2.103,6.72,9.309,5.043,16.063
					c-0.995,4.006-3.227,7.176-5.973,8.48C1020.281,842.568,1019.357,842.783,1018.44,842.783z M1011.615,826.325
					c-1.585,6.385,0.472,13.157,4.585,15.098c1.486,0.701,3.083,0.685,4.624-0.047c2.52-1.196,4.582-4.158,5.516-7.921
					c1.585-6.385-0.472-13.157-4.585-15.097c-1.486-0.701-3.085-0.684-4.624,0.046
					C1014.611,819.601,1012.549,822.562,1011.615,826.325L1011.615,826.325z"/>
			</g>
			<g style="opacity:0.3;">
				<path style="fill:#FFFFFF;" d="M987.763,826.531c-0.997,6.509,2.148,13.172,7.024,14.881c4.876,1.71,9.637-2.181,10.634-8.69
					c0.997-6.509-2.148-13.172-7.024-14.881C993.521,816.132,988.76,820.022,987.763,826.531z"/>
			</g>
			<g style="opacity:0.3;">
				<path style="fill:#FFFFFF;" d="M1010.64,826.676c-0.998,6.538,1.74,13.333,6.116,15.176c4.376,1.843,8.733-1.963,9.731-8.502
					c0.998-6.539-1.74-13.333-6.117-15.177C1015.995,816.331,1011.638,820.137,1010.64,826.676z"/>
			</g>
			<g>
				<path style="fill:#FFFFFF;" d="M997.567,841.98c-0.86,0-1.727-0.144-2.578-0.435c-5.37-1.836-8.842-9.004-7.74-15.978l0,0
					c0.614-3.884,2.531-7.055,5.26-8.699c2.038-1.229,4.396-1.483,6.641-0.714c5.37,1.837,8.842,9.005,7.74,15.979
					c-0.614,3.884-2.531,7.055-5.26,8.699C1000.364,841.594,998.975,841.98,997.567,841.98z M996.554,816.554
					c-1.247,0-2.467,0.347-3.61,1.036c-2.515,1.515-4.287,4.471-4.862,8.109l0,0c-1.041,6.587,2.18,13.338,7.18,15.048
					c2.033,0.695,4.085,0.475,5.932-0.638c2.515-1.515,4.287-4.471,4.863-8.109c1.041-6.587-2.18-13.338-7.18-15.049
					C998.101,816.686,997.323,816.554,996.554,816.554z"/>
			</g>
			<g>
				<path style="fill:#FFFFFF;" d="M1011.717,830.081c-0.161,0-0.323-0.048-0.465-0.146c-0.099-0.068-2.364-1.565-5.946-0.541
					c-0.436,0.123-0.89-0.128-1.014-0.563c-0.125-0.436,0.128-0.889,0.563-1.014c4.375-1.25,7.215,0.688,7.333,0.771
					c0.371,0.26,0.462,0.771,0.202,1.142C1012.231,829.958,1011.976,830.081,1011.717,830.081z"/>
			</g>
		</g>
		<g>
			<g>
				<path style="fill:#020202;" d="M1006.029,845.703c-1.677,0-3.516-0.457-5.337-1.775c-0.132-0.096-0.162-0.281-0.066-0.413
					c0.095-0.131,0.279-0.161,0.413-0.066c5.539,4.012,11.299-0.491,11.357-0.537c0.127-0.103,0.313-0.081,0.415,0.047
					c0.102,0.127,0.081,0.313-0.047,0.415C1012.722,843.408,1009.786,845.703,1006.029,845.703z"/>
			</g>
			<g>
				<path style="fill:#020202;" d="M1000.445,845.147c-0.15,0-0.278-0.113-0.293-0.265c-0.08-0.77,0.24-1.655,0.949-2.632
					c0.093-0.129,0.297-0.192,0.427-0.103c0.132,0.089,0.192,0.234,0.108,0.37l-0.057,0.081c-0.773,1.065-0.884,1.797-0.839,2.224
					c0.017,0.163-0.101,0.308-0.263,0.324C1000.466,845.146,1000.455,845.147,1000.445,845.147z"/>
			</g>
		</g>
		<g>
			<path style="fill:#331832;" d="M941.521,1050.293c-2.248,10.89,31.844,16.478,70.216,14.067
				c38.373-2.411,69.024-18.326,68.743-22.799c-0.281-4.473-31.616-6.144-69.989-3.732
				C972.12,1040.24,942.427,1045.904,941.521,1050.293z"/>
		</g>
		<g>
			<path style="fill:#FFB27D;" d="M1064.364,1044.207c2.38,0.112,4.912,5.099,5.105,7.474c0.902,11.12,8.323,41.494-4.125,116.306
				c-11.302,67.924-38.193,145.261-44.739,178.075c-2.341,11.738,1.337,11.43-10.362,11.899l-6.287,0.252
				c-5.95,0.174-8.386,0.767-7.462-12.151l1.351-233.127c0,0-0.538-71.408,18.521-71.781
				C1027.831,1040.928,1052.995,1043.674,1064.364,1044.207z"/>
		</g>
		<g>
			<path style="fill:#FFB27D;" d="M1034.948,1047.024l-105.396,299.035c-3.693,11.864-0.073,17.247-12.241,17.455l-5.303,0.091
				c-12.521,0.214-8.851-28.376-6.567-40.975l37.221-266.464c0.701-3.165,14.878-6.564,17.931-7.445
				C977.141,1043.949,1036.573,1035.302,1034.948,1047.024z"/>
		</g>
		<g>
			<g>
				<path style="fill:#FFB27D;" d="M991.452,1002.222l0.36-22.039c0.049-3.012-2.268-5.536-5.272-5.751
					c-15.278-1.093-25.973-5.831-31.832-14.117c-8.136-11.505-7.277-29.376-5.01-41.769c1.16-6.342-0.933-10.584-8.594-14.649
					c0,0-6.592-3.626-14.718-5.01c-3.255-0.554-6.487,0.754-7.327,3.948c-1.314,4.998-3.016,12.774-3.828,21.925
					c-1.928,21.733,2.264,40.637,12.123,54.67c12.1,17.223,31.605,26.752,58.032,28.371
					C988.631,1007.999,991.399,1005.472,991.452,1002.222z"/>
			</g>
		</g>
		<g>
			<path style="fill:#E9845C;" d="M935.274,973.303c-2.048,0-4.429-1.233-6.19-3.42l0,0c-1.241-1.541-2-3.323-2.136-5.021
				c-0.141-1.749,0.392-3.204,1.499-4.095c2.243-1.805,6.177-0.654,8.77,2.565c2.594,3.221,2.88,7.311,0.638,9.116
				C937.136,973.028,936.242,973.303,935.274,973.303z M929.655,969.423c2.34,2.906,5.813,4.008,7.74,2.454
				c1.928-1.552,1.592-5.18-0.748-8.085c-2.34-2.906-5.812-4.007-7.739-2.454c-0.913,0.734-1.349,1.965-1.228,3.464
				C927.804,966.356,928.506,967.996,929.655,969.423L929.655,969.423z"/>
		</g>
		<g>
			<path style="fill:#EF8062;" d="M1028.443,810.046c0,0-3.93-4.101-11.723-5.355c-13.759-2.214-33.634-0.191-43.618,17.009
				l-4.386-7.54l9.53-13.696l17.072-5.64l16.401-3.774l15.156,4.521L1028.443,810.046z"/>
		</g>
		<g>
			<g>
				<path style="fill:#060423;" d="M1073.185,938.101l-14.835,85.402c-0.971,5.589-6.364,9.275-11.924,8.148l-39.749-8.052
					c-5.345-1.083-8.858-6.223-7.924-11.596l14.62-84.163c0.95-5.469,6.145-9.138,11.617-8.206l39.964,6.812
					C1070.45,927.384,1074.14,932.607,1073.185,938.101z"/>
			</g>
			<g>
				<path style="fill:#92A5E6;" d="M1022.371,932.739c0-1.463,1.186-2.649,2.649-2.649c1.463,0,2.649,1.186,2.649,2.649
					s-1.186,2.649-2.649,2.649C1023.557,935.388,1022.371,934.202,1022.371,932.739z"/>
			</g>
		</g>
		<g>
			<g>
				<g>
					<path style="fill:#FFB27D;" d="M986.54,974.431c0,0,21.324-8.963,31.258-7.725c9.934,1.238,21.688,10.33,15.367,10.87
						s-14.588-1.001-14.588-1.001s17.507,4.122,14.77,7.799c-2.737,3.677-17.929-0.055-17.929-0.055s20.442,6.565,16.731,9.201
						c-3.71,2.636-19.204-2.461-19.204-2.461s18.775,6.868,14.393,9.829c-4.382,2.961-15.479-5.776-18.216-2.1
						c-2.737,3.677-18.259,14.89-29.409,8.53L986.54,974.431z"/>
				</g>
			</g>
			<g>
				<path style="fill:#E9845C;" d="M1018.577,976.944c-0.046,0-0.092-0.008-0.137-0.026c-0.046-0.018-4.652-1.826-7.055-0.2
					c-0.169,0.112-0.398,0.07-0.513-0.1c-0.115-0.169-0.07-0.398,0.099-0.513c2.727-1.845,7.54,0.044,7.743,0.126
					c0.19,0.076,0.282,0.291,0.206,0.48C1018.862,976.856,1018.724,976.944,1018.577,976.944z"/>
			</g>
			<g>
				<path style="fill:#E9845C;" d="M1015.418,984.689c-0.048,0-0.096-0.009-0.143-0.029c-0.045-0.019-4.546-1.87-8.549-0.194
					c-0.188,0.08-0.405-0.01-0.484-0.198c-0.079-0.189,0.01-0.405,0.198-0.483c4.295-1.798,8.926,0.112,9.121,0.194
					c0.188,0.079,0.276,0.296,0.197,0.483C1015.7,984.604,1015.562,984.689,1015.418,984.689z"/>
			</g>
			<g>
				<path style="fill:#E9845C;" d="M1012.945,991.429c-0.046,0-0.093-0.008-0.137-0.026c-0.055-0.023-5.524-2.179-7.927-0.238
					c-0.159,0.128-0.391,0.103-0.52-0.056c-0.128-0.158-0.103-0.391,0.055-0.519c2.742-2.212,8.426,0.031,8.667,0.127
					c0.19,0.076,0.281,0.291,0.205,0.481C1013.23,991.342,1013.092,991.429,1012.945,991.429z"/>
			</g>
		</g>
		<g>
			<g>
				<path style="fill:#FFB27D;" d="M1072.466,987.003c0,0,7.096,10.328-0.885,9.463c-10.168-1.103-29.761-13.887-23.309-13.284
					c5.72,0.535,13.662,3.399,13.662,3.399s-20.097-7.588-17.179-11.571c2.918-3.983,20.114,2.796,20.114,2.796
					s-18.905-9.387-15.029-12.196c3.877-2.808,19.527,3.242,19.527,3.242s-18.942-8.094-14.369-11.243
					c4.573-3.149,12.636,1.861,17.021,3.6c4.144,1.644,5.415,6.4,3.63,10.619c0,0,0.474,5.298-1.334,7.741
					c-0.693,0.937-0.125,2.366-0.31,3.185C1073.652,984.321,1072.466,987.003,1072.466,987.003z"/>
			</g>
		</g>
		<g>
			<path style="fill:#E9845C;" d="M1072.933,996.776c-0.165,0-0.316-0.112-0.358-0.279c-0.049-0.198,0.071-0.399,0.269-0.448
				c0.642-0.161,1.088-0.522,1.363-1.102c1.279-2.701-1.578-8.836-1.607-8.898c-0.072-0.154-0.03-0.338,0.102-0.445
				c1.868-1.511,1.255-5.938,1.249-5.982c-0.01-0.068,0-0.138,0.027-0.201c0.009-0.022,0.936-2.164,1.344-5.213
				c0.173-1.296,0.195-1.929,0.219-2.599c0.033-0.94,0.07-2.004,0.531-5.074c0.724-4.824-6.683-6.121-6.758-6.134
				c-0.201-0.034-0.337-0.225-0.303-0.426c0.034-0.201,0.222-0.331,0.425-0.304c0.082,0.014,8.197,1.438,7.366,6.973
				c-0.455,3.028-0.489,4.025-0.523,4.989c-0.024,0.69-0.047,1.34-0.225,2.673c-0.378,2.824-1.167,4.852-1.358,5.313
				c0.088,0.705,0.479,4.604-1.313,6.365c0.55,1.235,2.776,6.568,1.492,9.277c-0.37,0.782-0.993,1.287-1.851,1.503
				C1072.993,996.772,1072.963,996.776,1072.933,996.776z"/>
		</g>
		<g>
			<path style="fill:#331832;" d="M1020.605,1346.061c0,0,0.293,11.717,8.222,15.023c7.928,3.305,30.901,6.288,22.317,13.821
				c-4.925,4.323-28.138,1.529-34.691,1.529c-6.554,0-12.707,2.856-17.577-1.531c-5.358-4.826-2.381-28.843-2.381-28.843
				s8.037,2.946,13.123,2.814C1016.946,1348.684,1020.605,1346.061,1020.605,1346.061z"/>
		</g>
		<g>
			<path style="fill:#331832;" d="M929.553,1346.058c0,0,0.293,11.717,8.222,15.022s30.901,6.288,22.317,13.821
				c-4.926,4.322-28.138,1.529-34.691,1.529c-6.554,0-12.707,2.856-17.578-1.531c-5.358-4.826-4.705-29.83-4.705-29.83
				s10.361,3.934,15.447,3.802C925.894,1348.682,929.553,1346.058,929.553,1346.058z"/>
		</g>
		<g>
			<path style="fill:#EF8062;" d="M1071.962,1046.315c4.336,31.472,8.752,279.99-49.591,307.627c0,0-15.767,3.126-26.703-1.229
				c0,0-13.386,1.361-10.935-22.732c2.45-24.094,14.161-170.967,7.08-210.239c-7.08-39.272-7.38-75.535-7.38-75.535
				s40.836-6.647,83.522-1.735C1070.027,1042.71,1071.677,1044.249,1071.962,1046.315z"/>
		</g>
		<g>
			<path style="fill:#EF8062;" d="M1018.577,1056.976c0,0-49.764,250.887-65.283,277.496
				c-15.519,26.609-54.589,20.181-56.223,11.588c-1.633-8.593,41.925-283.354,41.925-283.354s-0.714-10.108,8.371-11.886
				c9.71-1.9,45.361-9.063,63.122-9.343L1018.577,1056.976z"/>
		</g>
		<g>
			<path style="fill:#020202;" d="M994.685,1175.734l-1.509-0.052c1.478-42.581,24.556-75.003,24.789-75.326l1.224,0.884
				C1018.959,1101.559,996.147,1133.628,994.685,1175.734z"/>
		</g>
	</g>
	<g>
		<g>
			<path style="fill:#764678;" d="M1670.043,802.847c0,0,11.948-4.546,19.729,6.147c7.781,10.693,7.09,4.474,19.065,16.646
				c11.975,12.172-7.522,18.462-3.424,28.737c4.097,10.275,13.683,10.841,10.79,24.357c-2.893,13.516-14.397,8.872-13.81,17.453
				c0.587,8.581,6.951,16.401-3.452,18.37c-10.403,1.968-13.473,1.431-19.373,13.896c-5.9,12.465-24.465,1.534-38.469,6.745
				c-14.004,5.211-50.399,3.263-52.723-4.466c-2.324-7.729-30.699-11.928-16.891-33.594c7.615-11.948-4.165-9.148-5.884-24.746
				c-1.408-12.776,16.57-10.347,9.201-21.772c-3.289-5.099-5.228-19.03,7.356-27.738c12.584-8.708,10.336-26.467,29.748-23.176
				s21.338-3.732,32.832-7.04C1656.231,789.357,1662.682,803.97,1670.043,802.847z"/>
		</g>
		<g>
			<g>
				<path style="fill:#BD7F58;" d="M1722.25,1115.502L1722.25,1115.502c1.962,0.362,3.272,2.263,2.91,4.226l-5.614,30.46
					c-0.362,1.962-2.263,3.272-4.226,2.911l0,0c-1.962-0.362-3.272-2.263-2.91-4.226l5.614-30.46
					C1718.386,1116.45,1720.288,1115.141,1722.25,1115.502z"/>
			</g>
			<g>
				<path style="fill:#BD7F58;" d="M1713.116,1113.819L1713.116,1113.819c1.962,0.362,3.272,2.263,2.91,4.226l-6.279,34.065
					c-0.362,1.962-2.263,3.272-4.226,2.91l0,0c-1.962-0.362-3.272-2.263-2.91-4.225l6.279-34.066
					C1709.252,1114.767,1711.154,1113.457,1713.116,1113.819z"/>
			</g>
			<g>
				<path style="fill:#BD7F58;" d="M1714.179,1095.925l0.347,0.399c1.722,1.978,1.513,5.005-0.465,6.727l-17.151,14.933
					c-1.978,1.722-5.005,1.513-6.727-0.465l-0.347-0.398c-1.722-1.978-1.513-5.005,0.465-6.727l17.15-14.933
					C1709.429,1093.738,1712.456,1093.947,1714.179,1095.925z"/>
			</g>
			<g>
				<path style="fill:#BD7F58;" d="M1703.982,1112.135L1703.982,1112.135c1.962,0.362,3.272,2.263,2.91,4.226l-5.033,27.307
					c-0.362,1.963-2.263,3.272-4.226,2.911l0,0c-1.962-0.362-3.272-2.263-2.91-4.226l5.033-27.307
					C1700.118,1113.083,1702.02,1111.774,1703.982,1112.135z"/>
			</g>
			<g>
				<path style="fill:#BD7F58;" d="M1731.645,1099.297c0,0,7.086,19.487-0.705,31.991c-2.696,4.328-29.449-1.368-30.982-6.871
					s3.664-23.614,3.664-23.614L1731.645,1099.297z"/>
			</g>
			<g>
				<path style="fill:#BD7F58;" d="M1731.327,1117.147L1731.327,1117.147c1.958,0.361,3.265,2.259,2.904,4.217l-5.023,27.25
					c-0.361,1.958-2.259,3.265-4.217,2.904l0,0c-1.958-0.361-3.266-2.259-2.904-4.217l5.023-27.25
					C1727.47,1118.094,1729.368,1116.786,1731.327,1117.147z"/>
			</g>
		</g>
		<g>
			<g>
				<path style="fill:#BD7F58;" d="M1698.284,1112.618c0.108-40.466-2.887-98.615-17.775-145.838
					c-3.45-10.942-4.927-15.068-7.848-21.139c-2.35-4.886,3.583-14.586,11.899-18.698c7.803-3.859,19.22-2.039,20.827,0.383
					c2.732,4.119,5.344,11.765,9.386,23.896c14.046,42.151,19.838,95.445,17.86,163.273L1698.284,1112.618z"/>
			</g>
		</g>
		<g>
			<path style="fill:#331832;" d="M1651.461,1364.586c0,0,0.293,11.688,8.201,14.984c7.908,3.297,30.822,6.272,22.26,13.786
				c-4.913,4.311-28.067,1.525-34.603,1.525c-6.538,0-12.675,2.849-17.533-1.527c-5.344-4.813,0.001-28.77,0.001-28.77
				s5.641,2.939,10.714,2.807C1647.811,1367.202,1651.461,1364.586,1651.461,1364.586z"/>
		</g>
		<g>
			<path style="fill:#331832;" d="M1549.186,1352.942c0,0-4.234,10.898,1.793,16.987c6.027,6.09,26.024,17.666,15.228,21.3
				c-6.195,2.085-26.487-9.409-32.518-11.928c-6.033-2.52-12.794-2.256-15.59-8.165c-3.076-6.501,11.088-26.547,11.088-26.547
				s4.073,4.886,8.805,6.719C1544.81,1353.95,1549.186,1352.942,1549.186,1352.942z"/>
		</g>
		<g>
			<path style="fill:#92A5E6;" d="M1710.239,1044.193c0,0-0.563,53.866-4.897,148.906c-3.398,74.513-2.698,143.566-9.227,176.296
				c-2.335,11.708-88.73,5.739-87.808-7.147l20.451-230.198l3.905-72.883L1710.239,1044.193z"/>
		</g>
		<g>
			<path style="fill:#331832;" d="M1566.34,1085.61c0.162,5.995,33.752,8.411,75.281,7.055c41.529-1.356,74.308-7.259,74.146-13.255
				c-0.162-5.996-33.204-9.813-74.734-8.457C1599.504,1072.309,1566.178,1079.614,1566.34,1085.61z"/>
		</g>
		<g>
			<path style="fill:#92A5E6;" d="M1662.94,1084.062l-76.755,285.267c-3.684,11.834-87.989-21.386-85.711-33.953l71.051-242.835
				c0.699-3.157,3.029-5.668,6.075-6.546C1594.105,1081.234,1664.56,1072.37,1662.94,1084.062z"/>
		</g>
		<g>
			<path style="fill:#EF8062;" d="M1595.202,924.832c0,0,14.727-31.711,56.119-26.335c41.392,5.377,67.647,62.887,64.445,180.912
				c0,0-66.614-21.274-149.536,6.065C1566.231,1085.474,1572.489,970.935,1595.202,924.832z"/>
		</g>
		<g>
			<path style="fill:#EF8062;" d="M1560.795,908.119l33.087,33.595c0,0,74.923,14.641,95.341,12.876
				c20.418-1.765,24.923-16.234,24.923-16.234s-16.65-27.984-52.386-37.891c-3.357-0.936-6.788-1.359-10.436-1.966
				c-6.124-1.014-10.323-0.789-16.396-1.407C1578.468,891.354,1560.795,908.119,1560.795,908.119z"/>
		</g>
		<g>
			<path style="fill:#020202;" d="M1619.094,1247.755l-1.441-0.338l23.429-99.859c4.388-13.35,13.38-24.439,25.336-31.289
				l0.737,1.285c-11.639,6.667-20.393,17.466-24.649,30.404L1619.094,1247.755z"/>
		</g>
		<g>
			<path style="fill:#BD7F58;" d="M1624.749,896.409c4.073-0.9,7.366-3.885,8.583-7.875l3.812-12.503l1.105-3.629l6.504-21.337
				l0.825,21.272l0.494,12.768l0.141,3.64c0.115,2.97,0.979,8.713,2.233,9.347c0,0,7.818,3.485,1.608,6.249
				c-7.298,3.249-20.195-1.346-25.371-7.916C1624.705,896.419,1624.727,896.414,1624.749,896.409z"/>
		</g>
		<g>
			<path style="fill:#331832;" d="M1637.083,875.685c0.017,0.116,0.037,0.232,0.061,0.347c1.259,6.747,8.889,9.116,8.889,9.116
				l0.04-0.042l-0.494-12.768c-2.315-0.568-5.577-1.053-7.329,0.065C1637.333,872.988,1636.83,874.01,1637.083,875.685z"/>
		</g>
		<g>
			<path style="fill:#BD7F58;" d="M1665.913,852.131c-1.501-13.509-11.595-23.474-22.545-22.257
				c-10.95,1.217-18.61,13.155-17.108,26.664c1.501,13.509,11.595,23.474,22.545,22.257
				C1659.755,877.578,1667.414,865.64,1665.913,852.131z"/>
		</g>
		<g>
			<path style="fill:#FFFFFF;" d="M1658.523,868.976c0,0-6.755,0.909-13.792-0.717c0,0,0.179,6.738,7.564,6.37
				C1656.589,874.415,1658.523,868.976,1658.523,868.976z"/>
		</g>
		<g>
			<g>
				<path style="fill:#080435;" d="M1648.03,854.357c0.128-0.051,0.232-0.159,0.271-0.301c0.067-0.241-0.074-0.491-0.315-0.558
					c-0.142-0.039-3.351-1.263-5.694,1.951c-0.148,0.203-0.113,0.484,0.087,0.636c0.2,0.151,0.444,0.075,0.636-0.087
					c1.916-1.622,4.61-1.657,4.728-1.625C1647.842,854.4,1647.942,854.392,1648.03,854.357z"/>
			</g>
		</g>
		<g>
			<path style="fill:#080435;" d="M1645.012,859.71c0.085,1.079,0.79,1.904,1.573,1.842c0.783-0.062,1.349-0.987,1.264-2.067
				c-0.085-1.08-0.79-1.904-1.573-1.843C1645.493,857.705,1644.927,858.63,1645.012,859.71z"/>
		</g>
		<g>
			<g>
				<path style="fill:#080435;" d="M1664.389,854.919c0.138,0.002,0.275-0.058,0.365-0.175c0.153-0.198,0.118-0.482-0.079-0.636
					c-0.116-0.091-2.617-2.445-6.007-0.366c-0.214,0.131-0.289,0.405-0.162,0.621c0.127,0.216,0.382,0.239,0.621,0.162
					c2.39-0.77,4.893,0.224,4.99,0.299C1664.198,854.887,1664.294,854.918,1664.389,854.919z"/>
			</g>
		</g>
		<g>
			<path style="fill:#080435;" d="M1659.56,858.719c-0.332,1.031,0.005,2.061,0.752,2.303c0.748,0.241,1.623-0.399,1.956-1.43
				c0.332-1.031-0.005-2.062-0.752-2.303C1660.768,857.048,1659.892,857.688,1659.56,858.719z"/>
		</g>
		<g>
			<path style="fill:#331832;" d="M1560.795,908.119c-3.416,4.035,2.164,10.437,13.861,20.683
				c11.696,10.247,16.862,13.976,20.278,9.941c3.415-4.035,0.513-11.716-11.097-22.06
				C1575.317,909.093,1564.21,904.083,1560.795,908.119z"/>
		</g>
		<g>
			<path style="fill:#92A5E6;" d="M1582.966,1084.694c0,0,74.907-18.016,126.531-0.655l-12.791,7.406l-47.553,2.691
				L1582.966,1084.694z"/>
		</g>
		<g>
			<path style="fill:#BD7F58;" d="M1627.041,860.186c2.484,1.895,5.649,1.766,7.069-0.289c1.42-2.054,0.557-5.256-1.927-7.15
				c-2.484-1.895-5.649-1.766-7.069,0.289C1623.694,855.09,1624.557,858.291,1627.041,860.186z"/>
		</g>
		<g>
			<path style="fill:#764678;" d="M1653.802,836.101c0,0-0.244,7.047-7.761,7.198c0,0,0.808,5.732-6.633,5.018
				c0,0,0.964,3.831-4.169,4.744c0,0-1.71,3.985-7.725,2.242c-6.015-1.742-10.199-13.091-4.594-19.707
				c5.606-6.616,21.076-12.958,30.865-9.252c9.789,3.706,16.849,23.07,14.489,24.429c-2.361,1.359-7.944,0.698-8.699-3.67
				c0,0-5.148-1.482-4.173-6.214C1655.401,840.888,1653.858,838.149,1653.802,836.101z"/>
		</g>
		<g>
			<path style="fill:#EF8062;" d="M1628.066,876.262c-0.136,0-0.263-0.004-0.38-0.009c-3.569-0.173-6.839-2.534-7.289-5.262
				c-0.821-4.983,3.674-9.517,3.865-9.708c0.2-0.198,0.524-0.198,0.722,0.002c0.199,0.199,0.198,0.523-0.002,0.722
				c-0.043,0.043-4.313,4.357-3.578,8.817c0.369,2.241,3.268,4.26,6.33,4.409c3.477,0.164,6.061-2.042,7.133-6.064
				c0.782-2.935,0.543-5.373-0.713-7.247c-2.047-3.056-6.134-3.622-6.175-3.627c-0.28-0.036-0.476-0.293-0.439-0.572
				c0.036-0.28,0.298-0.47,0.572-0.44c0.186,0.024,4.589,0.636,6.891,4.071c1.426,2.129,1.712,4.847,0.851,8.078
				C1634.247,875.464,1630.126,876.262,1628.066,876.262z"/>
		</g>
		<g>
			<path style="fill:#EF8062;" d="M1660.382,879.079c-2.13,0-3.701-0.702-3.732-0.716c-0.255-0.118-0.367-0.42-0.25-0.676
				c0.117-0.257,0.419-0.368,0.677-0.252c0.229,0.105,5.651,2.499,9.674-2.599c4.03-5.107,0.194-9.857,0.155-9.904
				c-0.18-0.217-0.149-0.539,0.068-0.719c0.216-0.18,0.537-0.15,0.719,0.067c0.044,0.054,4.396,5.441-0.14,11.188
				C1665.272,878.358,1662.54,879.079,1660.382,879.079z"/>
		</g>
		<g>
			<path style="fill:#764678;" d="M1621.106,797.677c-1.411,0-2.906-0.135-4.481-0.444c-0.277-0.054-0.457-0.323-0.403-0.599
				c0.056-0.277,0.328-0.456,0.599-0.403c11.832,2.32,18.891-5.597,18.961-5.677c0.185-0.213,0.509-0.233,0.72-0.049
				c0.213,0.185,0.235,0.508,0.049,0.721C1636.487,791.299,1630.797,797.677,1621.106,797.677z"/>
		</g>
		<g>
			<path style="fill:#764678;" d="M1705.956,819.064c-0.061,0-0.123-0.011-0.183-0.034c-0.363-0.14-8.973-3.518-15.395-11.898
				c-6.96-9.084-14.549-7.728-17.489-6.724c-4.681,1.598-8.409-1.635-8.566-1.773c-0.21-0.187-0.23-0.509-0.044-0.72
				c0.189-0.212,0.51-0.23,0.72-0.045c0.034,0.03,3.451,2.977,7.559,1.572c3.149-1.076,11.266-2.541,18.63,7.069
				c6.249,8.153,14.865,11.532,14.951,11.566c0.263,0.101,0.394,0.397,0.293,0.66
				C1706.355,818.94,1706.161,819.064,1705.956,819.064z"/>
		</g>
		<g>
			<path style="fill:#764678;" d="M1569.101,861.092c-0.159,0-0.316-0.075-0.416-0.215c-0.164-0.23-0.11-0.548,0.12-0.712
				c4.783-3.398,3.736-5.539-0.639-12.439c-4.506-7.108,2.173-15.412,2.46-15.762c0.18-0.219,0.5-0.25,0.719-0.072
				c0.217,0.179,0.25,0.5,0.072,0.718c-0.066,0.08-6.498,8.087-2.388,14.569c4.377,6.904,5.932,9.865,0.368,13.817
				C1569.307,861.061,1569.204,861.092,1569.101,861.092z"/>
		</g>
		<g>
			<path style="fill:#764678;" d="M1566.535,898.531c-0.142,0-0.283-0.059-0.384-0.174c-0.186-0.212-0.165-0.534,0.047-0.72
				c5.793-5.081,1.442-10.264,1.253-10.482c-0.183-0.213-0.16-0.536,0.053-0.72c0.212-0.185,0.534-0.161,0.719,0.051
				c0.053,0.061,5.215,6.16-1.351,11.918C1566.775,898.49,1566.654,898.531,1566.535,898.531z"/>
		</g>
		<g>
			<path style="fill:#331832;" d="M1596.25,837.956c-0.147,0-0.294-0.063-0.394-0.186c-0.141-0.171-3.43-4.249-2.778-9.311
				c0.411-3.19,2.297-6.024,5.606-8.424c5.368-3.892,8.826-3.372,12.489-2.82c3.617,0.543,7.354,1.107,13.583-2.551
				c6.722-3.948,11.7-3.633,14.689-2.674c3.277,1.05,4.924,3.045,4.993,3.129c0.178,0.218,0.145,0.538-0.074,0.717
				c-0.219,0.177-0.54,0.146-0.718-0.073c-0.249-0.304-6.236-7.348-18.373-0.219c-6.542,3.842-10.638,3.225-14.252,2.68
				c-3.599-0.542-6.707-1.01-11.737,2.637c-3.069,2.225-4.817,4.822-5.193,7.719c-0.6,4.62,2.522,8.503,2.554,8.542
				c0.178,0.218,0.146,0.54-0.072,0.718C1596.479,837.918,1596.365,837.956,1596.25,837.956z"/>
		</g>
		<g>
			<path style="fill:#331832;" d="M1693.531,870.566c-0.03,0-0.058-0.003-0.088-0.008c-0.278-0.048-0.464-0.313-0.416-0.59
				c0.734-4.228-1.534-5.071-5.293-6.469c-1.604-0.596-3.42-1.272-5.258-2.341c-1.373-0.798-2.035-1.552-2.085-2.374
				c-0.071-1.171,1.113-2.068,2.484-3.107c1.854-1.405,3.956-2.998,3.815-5.584c-0.181-3.283-1.943-3.523-4.609-3.886
				c-1.765-0.24-3.764-0.513-5.608-1.796c-2.444-1.702-2.505-3.991-2.553-5.831c-0.051-1.922-0.144-2.781-1.804-2.989
				c-4.632-0.581-5.979-5.621-6.034-5.835c-0.07-0.273,0.093-0.551,0.366-0.621c0.269-0.072,0.551,0.093,0.622,0.366
				c0.012,0.045,1.235,4.582,5.173,5.076c2.6,0.327,2.65,2.181,2.697,3.975c0.047,1.776,0.096,3.614,2.117,5.02
				c1.641,1.143,3.512,1.397,5.162,1.622c2.706,0.368,5.263,0.717,5.489,4.842c0.172,3.127-2.262,4.971-4.217,6.453
				c-1.09,0.826-2.119,1.606-2.082,2.231c0.027,0.431,0.573,0.968,1.58,1.554c1.761,1.024,3.534,1.684,5.099,2.265
				c3.811,1.417,6.822,2.537,5.943,7.6C1693.991,870.391,1693.775,870.566,1693.531,870.566z"/>
		</g>
		<g>
			<path style="fill:#331832;" d="M1597.054,889.612c-0.004,0-0.008,0-0.012,0c-0.282-0.006-0.505-0.24-0.499-0.522
				c0.09-3.923-3.326-6.674-6.34-9.102c-2.415-1.944-4.499-3.624-4.395-5.626c0.066-1.252,1.004-2.446,2.867-3.65
				c2.816-1.818,4.446-3.945,4.847-6.319c0.564-3.342-1.52-6.058-1.542-6.085c-0.173-0.222-0.134-0.543,0.088-0.717
				c0.222-0.173,0.542-0.134,0.717,0.088c0.097,0.125,2.382,3.103,1.744,6.883c-0.45,2.669-2.234,5.026-5.301,7.007
				c-1.568,1.013-2.354,1.943-2.401,2.845c-0.077,1.482,1.819,3.009,4.016,4.778c3.039,2.448,6.822,5.495,6.72,9.921
				C1597.558,889.391,1597.33,889.612,1597.054,889.612z"/>
		</g>
		<g>
			<g>
				<path style="fill:#BD7F58;" d="M1527.181,1097.495c9.012-39.45,26.364-97.044,51.509-139.698
					c5.826-9.883,8.195-13.57,12.409-18.827c3.391-4.23-0.205-15.018-7.38-20.898c-6.733-5.517-18.266-6.317-20.377-4.32
					c-3.59,3.397-7.857,10.258-14.529,21.167c-23.182,37.902-40.833,91.583-54.188,158.112L1527.181,1097.495z"/>
			</g>
		</g>
		<g>
			<g>
				<path style="fill:#331832;" d="M1551.728,1177.189c-0.238,0-0.452-0.166-0.505-0.408c-0.154-0.711-15.706-71.107-46.204-75.392
					c-6.197-0.872-11.324,0.623-15.229,4.441c-6.599,6.45-8.681,18.501-9.265,27.476c-0.637,9.783,0.322,18.133,0.331,18.217
					c0.033,0.284-0.17,0.541-0.454,0.574c-0.278,0.026-0.54-0.169-0.574-0.454c-0.01-0.084-0.978-8.513-0.337-18.388
					c0.864-13.325,4.086-22.801,9.574-28.165c4.145-4.053,9.559-5.642,16.096-4.726c13.138,1.845,25.057,15.254,35.428,39.852
					c7.688,18.235,11.605,36.166,11.644,36.344c0.06,0.279-0.118,0.555-0.396,0.615
					C1551.801,1177.186,1551.764,1177.189,1551.728,1177.189z"/>
			</g>
			<g>
				<path style="fill:#EF8062;" d="M1571.335,1179.05c-3.312,1.242-132.633-47.751-132.633-47.751s-56.384,81.66-54.832,85.501
					c1.552,3.841,152.599,56.677,156.737,54.83C1544.745,1269.783,1571.335,1179.05,1571.335,1179.05z"/>
			</g>
			<g>
				<path style="fill:#331832;" d="M1571.335,1179.05c2.006,1.649,0.309,10.554,4.706,9.26c4.397-1.293,10.087-10.814,10.604-6.959
					c0.517,3.855-13.967,95.156-17.846,97.742c-3.88,2.586-8.018-6.208-14.225-4.914s-12.156,0.073-13.967-2.55
					C1538.796,1269.007,1566.083,1174.732,1571.335,1179.05z"/>
			</g>
			<g>
				<path style="fill:#331832;" d="M1536.24,1178.679c-0.283,0-0.514-0.228-0.518-0.512c-0.007-0.729-1.133-72.875-33.958-77.478
					c-6.719-0.942-12.38,0.69-16.841,4.848c-14.401,13.427-12.106,49.016-12.082,49.374c0.02,0.285-0.195,0.532-0.48,0.552
					c-0.28,0.028-0.532-0.194-0.552-0.48c-0.006-0.091-0.616-9.178,0.592-19.829c1.12-9.875,4.08-23.159,11.815-30.372
					c4.7-4.383,10.655-6.105,17.691-5.117c13.989,1.961,24.45,16.193,30.253,41.157c4.357,18.745,4.594,37.151,4.596,37.334
					c0.003,0.286-0.226,0.519-0.512,0.523C1536.244,1178.679,1536.242,1178.679,1536.24,1178.679z"/>
			</g>
		</g>
		<g>
			<g>
				<path style="fill:#BD7F58;" d="M1503.864,1100.693l-1.137-0.321c-1.608-0.454-3.295,0.49-3.749,2.098l-4.316,15.286
					c-0.454,1.608,0.49,3.295,2.098,3.749l1.137,0.321c1.608,0.454,3.295-0.49,3.749-2.098l4.316-15.286
					C1506.415,1102.834,1505.471,1101.147,1503.864,1100.693z"/>
			</g>
			<g>
				<path style="fill:#BD7F58;" d="M1512.802,1103.217l-1.137-0.321c-1.608-0.454-3.294,0.49-3.748,2.098l-4.888,17.313
					c-0.454,1.608,0.49,3.294,2.098,3.748l1.137,0.321c1.608,0.454,3.295-0.49,3.749-2.098l4.888-17.313
					C1515.354,1105.358,1514.41,1103.671,1512.802,1103.217z"/>
			</g>
			<g>
				<path style="fill:#BD7F58;" d="M1519.18,1086.544l-0.487,0.204c-2.418,1.014-3.568,3.822-2.554,6.241l8.791,20.972
					c1.014,2.419,3.822,3.568,6.241,2.554l0.487-0.204c2.419-1.014,3.568-3.822,2.554-6.241l-8.791-20.973
					C1524.407,1086.679,1521.599,1085.53,1519.18,1086.544z"/>
			</g>
			<g>
				<path style="fill:#BD7F58;" d="M1521.741,1105.741l-1.137-0.321c-1.608-0.454-3.295,0.49-3.748,2.098l-3.816,13.514
					c-0.454,1.608,0.49,3.295,2.098,3.749l1.137,0.321c1.608,0.454,3.294-0.49,3.748-2.098l3.816-13.514
					C1524.292,1107.881,1523.348,1106.195,1521.741,1105.741z"/>
			</g>
			<g>
				<path style="fill:#BD7F58;" d="M1502.02,1081.855c0,0-14.964,14.354-13.497,29.013c0.508,5.074,27.026,11.78,30.831,7.519
					c3.805-4.26,7.142-22.805,7.142-22.805L1502.02,1081.855z"/>
			</g>
			<g>
				<path style="fill:#BD7F58;" d="M1494.99,1098.171l-1.134-0.32c-1.604-0.453-3.288,0.489-3.741,2.094l-3.808,13.486
					c-0.453,1.604,0.489,3.288,2.094,3.741l1.135,0.32c1.604,0.453,3.288-0.489,3.741-2.094l3.808-13.486
					C1497.536,1100.307,1496.594,1098.624,1494.99,1098.171z"/>
			</g>
		</g>
	</g>
	<g>
		<g>
			<g>
				<path style="fill:#FFB27D;" d="M1361.21,1068.516c0,0,7.429,20.431-0.739,33.54c-2.827,4.537-30.875-1.434-32.482-7.203
					c-1.607-5.769,3.842-24.758,3.842-24.758L1361.21,1068.516z"/>
			</g>
			<g>
				<path style="fill:#FFB27D;" d="M1351.359,1085.506L1351.359,1085.506c2.057,0.379,3.431,2.373,3.051,4.43l-5.886,31.935
					c-0.379,2.057-2.373,3.431-4.43,3.051l0,0c-2.058-0.379-3.431-2.373-3.051-4.43l5.886-31.935
					C1347.308,1086.5,1349.302,1085.127,1351.359,1085.506z"/>
			</g>
			<g>
				<path style="fill:#FFB27D;" d="M1341.783,1083.741L1341.783,1083.741c2.057,0.379,3.43,2.373,3.051,4.43l-6.583,35.715
					c-0.379,2.057-2.373,3.431-4.43,3.051l0,0c-2.057-0.379-3.43-2.373-3.051-4.43l6.583-35.715
					C1337.732,1084.735,1339.725,1083.362,1341.783,1083.741z"/>
			</g>
			<g>
				<path style="fill:#FFB27D;" d="M1342.897,1064.98l0.364,0.418c1.806,2.074,1.586,5.247-0.487,7.053l-17.981,15.656
					c-2.074,1.806-5.247,1.586-7.053-0.487l-0.364-0.418c-1.806-2.074-1.586-5.248,0.487-7.053l17.98-15.656
					C1337.918,1062.688,1341.092,1062.907,1342.897,1064.98z"/>
			</g>
			<g>
				<path style="fill:#FFB27D;" d="M1332.207,1081.976L1332.207,1081.976c2.057,0.379,3.43,2.373,3.051,4.43l-5.277,28.629
					c-0.379,2.057-2.373,3.431-4.43,3.051l0,0c-2.057-0.379-3.431-2.373-3.051-4.43l5.277-28.629
					C1328.156,1082.97,1330.149,1081.597,1332.207,1081.976z"/>
			</g>
			<g>
				<path style="fill:#FFB27D;" d="M1360.875,1087.231L1360.875,1087.231c2.053,0.379,3.423,2.368,3.045,4.421l-5.266,28.569
					c-0.378,2.053-2.368,3.423-4.421,3.045l0,0c-2.053-0.379-3.423-2.368-3.045-4.421l5.266-28.569
					C1356.833,1088.223,1358.822,1086.852,1360.875,1087.231z"/>
			</g>
		</g>
		<g>
			<path style="fill:#CCD39C;" d="M1288.63,861.422c0,0,16.884-0.021,33.527,16.669c16.642,16.69,58.479,175.2,39.052,190.425
				c-19.427,15.225-35.895-3.601-35.895-3.601l-20.681-127.552L1288.63,861.422z"/>
		</g>
		<g>
			<path style="fill:#FFB27D;" d="M1164.049,877.033l36.354,27.588c0,0,79.639,7.968,100.78,4.132
				c21.141-3.836,3.721-37.848,3.721-37.848s-6.203-9.605-37.673-15.969c-3.582-0.724-7.219-0.755-11.086-1.033
				c-6.491-0.461-10.853,0.184-17.253,0.133C1179.397,853.557,1164.049,877.033,1164.049,877.033z"/>
		</g>
		<g>
			<path style="fill:#331832;" d="M1273.829,1348.286c0,0,0.307,12.254,8.598,15.71s32.315,6.576,23.338,14.453
				c-5.151,4.52-29.426,1.599-36.279,1.599c-6.854,0-13.289,2.987-18.382-1.601c-5.603-5.047,0.001-30.163,0.001-30.163
				s5.914,3.081,11.233,2.943C1270.002,1351.03,1273.829,1348.286,1273.829,1348.286z"/>
		</g>
		<g>
			<path style="fill:#331832;" d="M1178.611,1348.284c0,0,0.307,12.253,8.598,15.71c8.291,3.456,32.315,6.576,23.338,14.454
				c-5.151,4.52-29.426,1.599-36.279,1.599c-6.854,0-13.289,2.986-18.382-1.601c-5.603-5.047,0.001-30.163,0.001-30.163
				s5.914,3.081,11.233,2.943C1174.784,1351.027,1178.611,1348.284,1178.611,1348.284z"/>
		</g>
		<g>
			<path style="fill:#68A1BF;" d="M1335.434,1012.398c0,0-0.591,54.813-5.135,151.525c-3.563,75.823-2.829,146.09-9.674,179.396
				c-2.449,11.914-93.026,5.84-92.059-7.273l21.442-234.247l4.094-74.165L1335.434,1012.398z"/>
		</g>
		<g>
			<path style="fill:#331832;" d="M1185.704,1057.517c0.755,6.243,36.053,5.484,79.272,0.014
				c43.218-5.47,76.859-14.833,76.104-21.076c-0.755-6.243-35.619-7.001-78.837-1.531
				C1219.024,1040.395,1184.949,1051.274,1185.704,1057.517z"/>
		</g>
		<g>
			<path style="fill:#68A1BF;" d="M1285.816,1047.955l21.011,300.899c-3.862,12.042-181.628,4.828-179.24-7.959l62.416-279.298
				c0.733-3.213,8.019-4.504,11.212-5.398C1218.519,1051.354,1287.514,1036.057,1285.816,1047.955z"/>
		</g>
		<g>
			<path style="fill:#CCD39C;" d="M1200.132,930.305c0,0,14.137-15.449,39.193-25.904c8.642-3.606,49.305-42.979,49.305-42.979
				c27.075-3.848,44.267,82.981,52.449,175.033c0,0-71.613-6.371-155.504,20.931
				C1185.576,1057.386,1180.925,967.824,1200.132,930.305z"/>
		</g>
		<g>
			<path style="fill:#FFB27D;" d="M1238.963,854.027c4.349-0.466,8.126-3.195,9.856-7.212l5.42-12.587l1.572-3.653l9.248-21.48
				l-1.603,22.261l-0.964,13.361l-0.275,3.809c-0.224,3.108,1.948,5.857,5.015,6.409l0.054,0.01
				c1.646,2.676,3.919,8.116-2.872,10.277c-7.98,2.54-20.887-3.742-25.52-11.187C1238.916,854.032,1238.939,854.03,1238.963,854.027
				z"/>
		</g>
		<g>
			<path style="fill:#331832;" d="M1254.215,833.86c0.004,0.123,0.012,0.246,0.023,0.369c0.531,7.176,8.206,10.528,8.206,10.528
				l0.047-0.04l0.964-13.361c-2.347-0.86-5.689-1.743-7.645-0.781C1254.788,831.079,1254.146,832.085,1254.215,833.86z"/>
		</g>
		<g>
			<ellipse style="fill:#FFB27D;" cx="1266.069" cy="812.656" rx="20.915" ry="25.803"/>
		</g>
		<g>
			<path style="fill:#FFFFFF;" d="M1277.333,829.353c0,0-7.144,0.165-14.289-2.345c0,0-0.594,7.042,7.144,7.513
				C1274.688,834.796,1277.333,829.353,1277.333,829.353z"/>
		</g>
		<g>
			<g>
				<path style="fill:#080435;" d="M1268.092,812.905c0.139-0.038,0.26-0.138,0.317-0.283c0.097-0.244-0.02-0.52-0.264-0.618
					c-0.143-0.057-3.345-1.704-6.159,1.373c-0.177,0.194-0.174,0.492,0.017,0.673c0.19,0.181,0.454,0.13,0.673-0.017
					c2.185-1.469,4.995-1.193,5.115-1.146C1267.891,812.927,1267.996,812.931,1268.092,812.905z"/>
			</g>
		</g>
		<g>
			<path style="fill:#080435;" d="M1264.328,818.133c-0.036,1.135,0.602,2.076,1.426,2.102c0.823,0.026,1.52-0.872,1.556-2.007
				c0.036-1.135-0.602-2.076-1.426-2.102S1264.364,816.998,1264.328,818.133z"/>
		</g>
		<g>
			<g>
				<path style="fill:#080435;" d="M1285.073,815.385c0.143,0.018,0.293-0.029,0.401-0.14c0.183-0.188,0.179-0.488-0.008-0.672
					c-0.111-0.108-2.444-2.85-6.217-1.076c-0.238,0.112-0.348,0.388-0.241,0.629c0.107,0.24,0.371,0.293,0.629,0.241
					c2.579-0.526,5.073,0.8,5.165,0.889C1284.878,815.329,1284.974,815.372,1285.073,815.385z"/>
			</g>
		</g>
		<g>
			<path style="fill:#080435;" d="M1279.601,818.785c-0.465,1.036-0.234,2.149,0.517,2.487c0.751,0.338,1.738-0.228,2.203-1.263
				c0.466-1.035,0.234-2.149-0.517-2.487C1281.053,817.184,1280.067,817.749,1279.601,818.785z"/>
		</g>
		<g>
			<g>
				<path style="fill:#FFB27D;" d="M1198.313,997.722c0,0,11.937-12.89,22.219-12.69s23.264,8.23,16.864,9.459
					c-6.4,1.229-15.011,0.541-15.011,0.541s18.328,2.336,15.926,6.386c-2.403,4.05-18.323,1.865-18.323,1.865
					s21.589,4.517,18.08,7.608c-3.509,3.091-19.884-0.457-19.884-0.457s19.918,5.005,15.759,8.5
					c-4.159,3.495-16.433-4.243-18.836-0.193c-2.403,4.05-13.316,19.324-25.388,14.02L1198.313,997.722z"/>
			</g>
		</g>
		<g>
			<path style="fill:#9A603A;" d="M1214.809,996.193c-0.153,0-0.304-0.065-0.41-0.191c-0.19-0.225-0.161-0.563,0.065-0.754
				c2.651-2.229,7.848-0.793,8.067-0.732c0.284,0.08,0.45,0.376,0.369,0.66c-0.08,0.283-0.377,0.452-0.66,0.369
				c-0.049-0.014-4.87-1.344-7.087,0.522C1215.053,996.152,1214.93,996.193,1214.809,996.193z"/>
		</g>
		<g>
			<path style="fill:#9A603A;" d="M1210.941,1004.565c-0.189,0-0.373-0.101-0.47-0.279c-0.142-0.26-0.047-0.585,0.213-0.727
				c4.252-2.326,9.248-0.852,9.459-0.79c0.283,0.085,0.442,0.384,0.357,0.667c-0.086,0.284-0.385,0.446-0.667,0.358
				c-0.047-0.014-4.783-1.402-8.635,0.705C1211.116,1004.544,1211.028,1004.565,1210.941,1004.565z"/>
		</g>
		<g>
			<path style="fill:#9A603A;" d="M1209.687,1011.671c-0.138,0-0.275-0.053-0.379-0.158c-0.208-0.209-0.208-0.548,0.001-0.757
				c2.627-2.62,8.761-0.913,9.021-0.838c0.284,0.081,0.449,0.376,0.368,0.661c-0.081,0.284-0.375,0.447-0.661,0.368
				c-0.057-0.017-5.789-1.609-7.973,0.567C1209.96,1011.619,1209.823,1011.671,1209.687,1011.671z"/>
		</g>
		<g>
			<g>
				<path style="fill:#FFB27D;" d="M1197.351,1028.634l11.658-25.704c1.593-3.512,0.288-7.721-2.966-9.584
					c-16.547-9.472-26.101-20.772-28.43-33.648c-3.234-17.879,16.605-38.44,25.471-51.787c4.537-6.831-4.726-13.444-11.893-21.797
					c-2.977-3.469-5.894-5.881-15.403-9.851c-4.594-1.918-9.167-2.531-11.738,0.771c-4.024,5.169-6.897,9.411-12.479,19.728
					c-13.256,24.504-18.216,48.964-14.344,70.737c4.752,26.723,21.724,48.373,50.486,64.439
					C1191.243,1033.91,1195.632,1032.425,1197.351,1028.634z"/>
			</g>
		</g>
		<g>
			<path style="fill:#68A1BF;" d="M1218.775,1051.899c0,0,87.933-17.625,115.899-9.852l-13.41,19.874l-49.856,2.821
				L1218.775,1051.899z"/>
		</g>
		<g>
			<path style="fill:#EF8062;" d="M1279.186,840.156c-2.781,0-4.856-1.217-4.892-1.239c-0.253-0.153-0.334-0.481-0.182-0.734
				c0.152-0.254,0.481-0.335,0.734-0.184c0.227,0.135,5.6,3.259,10.383-1.588c4.792-4.855,1.344-10.248,1.309-10.302
				c-0.162-0.247-0.093-0.579,0.154-0.741c0.247-0.163,0.578-0.094,0.741,0.154c0.04,0.061,3.951,6.179-1.442,11.642
				C1283.697,839.487,1281.248,840.156,1279.186,840.156z"/>
		</g>
		<g>
			<path style="fill:#366F90;" d="M1259.688,794.399c0.752,4.671-0.446,8.296,13.916,11.775c0,0,2.364,1.561,2.498-0.981
				c0.134-2.542-3.465-6.423-1.532-9.367c0,0,10.31,21.349,13.749,16.83c3.439-4.519,7.935-19.149,0-28.069
				c-7.935-8.921-32.843-10.833-37.016-3.568C1245.155,791.723,1259.045,790.403,1259.688,794.399z"/>
		</g>
		<g>
			<path style="fill:#366F90;" d="M1250.89,785.917c0,0,6.326,1.574,6.045,4.403s4.175,8.171-0.017,9.956
				c-4.193,1.784-5.186,2.859-5.169,5.987c0.012,2.18-3.806,6.998-5.173,11.374c-0.595,1.903,0.543,5.938,0.543,5.938
				s-15.976-5.395-13.122-23.631C1235.855,788.076,1246.889,784.306,1250.89,785.917z"/>
		</g>
		<g>
			<path style="fill:#366F90;" d="M1203.555,857.121c0,0,7.515,32.915,6.132,56.167l12.698-2.301c0,0,1.894-36.134-9.415-57.252
				C1212.97,853.735,1206.872,851.571,1203.555,857.121z"/>
		</g>
		<g>
			<path style="fill:#FFB27D;" d="M1245.547,816.547c2.369,2.262,5.682,2.494,7.399,0.518c1.717-1.976,1.189-5.412-1.18-7.674
				c-2.369-2.262-5.682-2.494-7.399-0.518C1242.65,810.85,1243.178,814.285,1245.547,816.547z"/>
		</g>
		<g>
			<path style="fill:#EF8062;" d="M1247.655,834.691c-0.518,0-0.971-0.048-1.328-0.105c-3.699-0.594-6.834-3.432-6.986-6.327
				c-0.279-5.287,4.93-9.492,5.152-9.668c0.23-0.184,0.567-0.146,0.752,0.086c0.184,0.231,0.146,0.568-0.085,0.752
				c-0.05,0.04-4.999,4.042-4.75,8.774c0.125,2.378,2.913,4.817,6.087,5.327c3.585,0.579,6.551-1.426,8.134-5.493
				c1.155-2.968,1.187-5.536,0.096-7.634c-1.779-3.421-5.972-4.484-6.014-4.494c-0.287-0.071-0.463-0.36-0.392-0.647
				c0.07-0.287,0.356-0.466,0.647-0.392c0.191,0.047,4.708,1.194,6.709,5.04c1.24,2.383,1.223,5.249-0.048,8.516
				C1253.56,833.738,1249.966,834.691,1247.655,834.691z"/>
		</g>
		<g>
			<path style="fill:#366F90;" d="M1238.893,784.587c-0.185,0-0.365-0.096-0.464-0.268c-0.148-0.256-0.061-0.583,0.195-0.731
				c4.865-2.814,8.889-0.093,9.057,0.023c0.243,0.168,0.302,0.5,0.135,0.743c-0.168,0.243-0.5,0.302-0.744,0.137
				c-0.147-0.1-3.649-2.44-7.913,0.023C1239.077,784.563,1238.984,784.587,1238.893,784.587z"/>
		</g>
		<g>
			<path style="fill:#366F90;" d="M1248.656,782.624c-0.294,0-0.533-0.236-0.535-0.531c-0.001-0.156-0.013-3.839,1.682-5.235
				c0.227-0.188,0.565-0.155,0.753,0.073c0.188,0.228,0.155,0.565-0.073,0.753c-1.079,0.889-1.298,3.477-1.292,4.4
				c0.002,0.296-0.235,0.537-0.531,0.539C1248.659,782.624,1248.658,782.624,1248.656,782.624z"/>
		</g>
		<g>
			<path style="fill:#CCD39C;" d="M1288.63,861.422c0,0-36.112,55.123-140.454,41.992c0,0-29.066,49.949-12.229,87.646
				c16.836,37.697,32.227,18.518,36.87,7.228c4.642-11.29,20.218-13.968,20.218-13.968l96.862-75.137L1288.63,861.422z"/>
		</g>
		<g>
			<path style="fill:#020202;" d="M1193.327,985.039l-0.586-1.438c3.091-1.26,4.826-3.057,5.158-5.339
				c0.781-5.378-6.045-12.987-12.693-18.315c-1.866-1.495-2.748-3.307-2.624-5.387c0.418-6.973,12.407-14.495,12.916-14.813
				l0.819,1.319c-0.118,0.073-11.817,7.413-12.186,13.588c-0.094,1.569,0.575,2.904,2.044,4.082
				c3.389,2.716,14.359,12.166,13.258,19.749C1199.019,981.351,1196.964,983.556,1193.327,985.039z"/>
		</g>
		<g>
			<path style="fill:#020202;" d="M1340.305,1036.512c-3.705-51.02-25.431-114.775-25.65-115.412l1.468-0.504
				c0.22,0.64,22.011,64.58,25.73,115.803L1340.305,1036.512z"/>
		</g>
	</g>
	<g>
		<g>
			<g>
				<g>
					<path style="fill:#92A5E6;" d="M748.29,968.654c22.92,4.357,68.224,13.286,102.091-10.565
						c19.12-13.466,34.364-32.267,34.999-32.733l-25.04-35.848l12.52,17.924l-12.483-17.951
						c-13.038,9.475-34.611,38.371-64.836,30.934c-13.722-3.38-29.691-5.47-46.222-30.015l-43.617,15.326
						C719.416,933.261,715.417,963.754,748.29,968.654z"/>
				</g>
			</g>
			<g>
				<path style="fill:#FFB27D;" d="M826.129,930.105c0,0,14.239-21.209,28.712-27.741c14.473-6.532,23.65-1.113,23.65-1.113
					l15.531-6.202c0,0,2.226,58.918-38.138,48.538C852.697,942.767,826.129,930.105,826.129,930.105z"/>
			</g>
			<g>
				<path style="fill:#060423;" d="M891.71,864.336l-14.835,85.402c-0.971,5.589-6.364,9.275-11.924,8.148l-39.75-8.052
					c-5.345-1.083-8.858-6.223-7.924-11.596l14.62-84.163c0.95-5.469,6.145-9.138,11.617-8.206l39.964,6.812
					C888.974,853.619,892.664,858.843,891.71,864.336z"/>
			</g>
			<g>
				<path style="fill:#100B47;" d="M885.496,861.68c-0.041-1.467-1.263-2.623-2.73-2.582c-1.467,0.041-2.623,1.263-2.582,2.73
					c0.041,1.467,1.263,2.623,2.73,2.582C884.381,864.369,885.537,863.147,885.496,861.68z"/>
			</g>
			<g>
				<g>
					<path style="fill:#FFB27D;" d="M900.861,897.054c0,0,5.229-11.472-5.276-16.172c-13.385-5.988-35.801-0.615-27.372,3.295
						c7.473,3.467,19.267,5.849,19.267,5.849s-30.072-5.639-29.108,1.005c0.964,6.644,26.888,11.141,26.888,11.141
						s-29.794-2.728-26.851,3.254c2.943,5.982,26.456,10.212,26.456,10.212s-28.975-4.235-25.393,2.633
						c3.581,6.868,19.008,6.021,25.626,7.156c6.253,1.072,8.97-2.612,9.571-8.718c0,0,4.133-5.731,3.519-9.82
						c-0.236-1.568,1.427-2.8,1.745-3.87C900.541,900.971,900.861,897.054,900.861,897.054z"/>
				</g>
			</g>
			<g>
				<g>
					<path style="fill:#FFB27D;" d="M548.155,1084.344L548.155,1084.344c-1.929,0.429-3.156,2.358-2.727,4.286l6.654,29.937
						c0.429,1.929,2.358,3.156,4.286,2.727l0,0c1.929-0.429,3.156-2.357,2.727-4.286l-6.654-29.937
						C552.012,1085.142,550.083,1083.915,548.155,1084.344z"/>
				</g>
				<g>
					<path style="fill:#FFB27D;" d="M557.132,1082.348L557.132,1082.348c-1.929,0.429-3.156,2.357-2.727,4.286l7.442,33.48
						c0.429,1.929,2.358,3.156,4.286,2.727l0,0c1.929-0.429,3.156-2.358,2.727-4.286l-7.442-33.48
						C560.99,1083.147,559.061,1081.919,557.132,1082.348z"/>
				</g>
				<g>
					<path style="fill:#FFB27D;" d="M555.435,1064.68l-0.329,0.407c-1.633,2.019-1.317,5.007,0.703,6.64l17.509,14.157
						c2.019,1.633,5.007,1.316,6.64-0.703l0.329-0.407c1.633-2.019,1.317-5.007-0.703-6.64l-17.508-14.157
						C560.055,1062.345,557.067,1062.661,555.435,1064.68z"/>
				</g>
				<g>
					<path style="fill:#FFB27D;" d="M566.109,1080.353L566.109,1080.353c-1.929,0.429-3.156,2.358-2.727,4.286l5.965,26.838
						c0.429,1.929,2.358,3.156,4.286,2.727l0,0c1.929-0.429,3.156-2.358,2.727-4.286l-5.965-26.838
						C569.967,1081.151,568.038,1079.924,566.109,1080.353z"/>
				</g>
				<g>
					<path style="fill:#FFB27D;" d="M538.273,1068.647c0,0-6.308,19.538,1.852,31.629c2.824,4.185,29.09-2.416,30.408-7.916
						c1.318-5.501-4.478-23.234-4.478-23.234L538.273,1068.647z"/>
				</g>
				<g>
					<path style="fill:#FFB27D;" d="M539.233,1086.299L539.233,1086.299c-1.925,0.428-3.149,2.353-2.722,4.277l5.953,26.782
						c0.428,1.925,2.353,3.149,4.277,2.722l0,0c1.925-0.428,3.149-2.353,2.722-4.277l-5.953-26.782
						C543.083,1087.096,541.158,1085.871,539.233,1086.299z"/>
				</g>
			</g>
			<g>
				<path style="fill:#331832;" d="M594.185,1062.036c0.158,6.178,37.516,8.632,83.721,7.19c46.205-1.441,83.128-7.831,82.97-14.009
					c-0.158-6.178-37.337-9.805-83.542-8.364C631.128,1048.294,594.026,1055.857,594.185,1062.036z"/>
			</g>
			<g>
				<path style="fill:#92A5E6;" d="M605.495,887.128c0,0,8.17-32.382,68.453-32.711c86.933-0.474,78.884,79.405,86.928,200.799
					c0,0-52.706-22.003-166.691,6.819C594.185,1062.036,586.618,936.608,605.495,887.128z"/>
			</g>
			<g>
				<path style="fill:#92A5E6;" d="M583.244,882.484l39.373,21.784c0,0,88.087,19.432,110.973,15.662
					c22.886-3.771,27.287-13.122,27.287-13.122s-24.375-44.277-65.805-51.011c-3.893-0.638-7.929-1.106-12.116-1.379
					c-7.027-0.453-14.064-0.358-20.942,0.417C609.505,860.754,583.244,882.484,583.244,882.484z"/>
			</g>
			<g>
				<path style="fill:#FFB27D;" d="M665.661,847.006l4.551-14.686l1.324-4.276l7.788-25.139l1.025,25.007l0.613,15.01l0.194,4.751
					c0.132,3.225,2.098,3.903,4.49,6.706c0.969,1.135,7.172,8.021,0.132,11.131c-8.77,3.875-25.165-1.992-31.398-9.678
					C654.428,855.82,664.19,851.752,665.661,847.006z"/>
			</g>
			<g>
				<g>
					<path style="fill:#FFB27D;" d="M571.613,1072.694c3.625-39.903,11.939-96.952,30.971-142.133
						c4.41-10.469,6.247-14.4,9.686-20.116c2.768-4.6-2.188-14.71-10.006-19.53c-7.336-4.524-18.76-3.783-20.567-1.544
						c-3.074,3.809-6.353,11.105-11.456,22.692c-17.734,40.259-28.359,92.264-32.663,159.313L571.613,1072.694z"/>
				</g>
			</g>
			<g>
				<path style="fill:#5C305D;" d="M699.364,793.465c0,0,1.588,6.085,0,13.715c-1.588,7.629-9.348-11.124-9.348-11.124
					L699.364,793.465z"/>
			</g>
			<g>
				
					<ellipse transform="matrix(0.9915 -0.1302 0.1302 0.9915 -99.96 95.1778)" style="fill:#FFB27D;" cx="678.136" cy="812.288" rx="22.341" ry="26.939"/>
			</g>
			<g>
				<g>
					<path style="fill:#080435;" d="M679.311,811.16c0.116-0.073,0.198-0.198,0.21-0.346c0.02-0.249-0.164-0.467-0.413-0.489
						c-0.147-0.012-3.521-0.615-5.22,2.971c-0.107,0.226-0.021,0.496,0.204,0.607c0.224,0.112,0.45-0.009,0.607-0.203
						c1.578-1.947,4.212-2.482,4.334-2.472C679.134,811.236,679.231,811.21,679.311,811.16z"/>
				</g>
			</g>
			<g>
				<path style="fill:#080435;" d="M677.347,816.969c0.284,1.043,1.128,1.721,1.885,1.514c0.756-0.206,1.139-1.219,0.855-2.261
					c-0.284-1.043-1.128-1.721-1.885-1.514C677.446,814.914,677.063,815.927,677.347,816.969z"/>
			</g>
			<g>
				<g>
					<path style="fill:#080435;" d="M696.065,809.815c0.105-0.018,0.197-0.097,0.245-0.226c0.08-0.216,0.002-0.49-0.176-0.612
						c-0.105-0.072-2.429-2.014-4.617,0.524c-0.138,0.16-0.145,0.44-0.009,0.633c0.136,0.193,0.333,0.178,0.5,0.068
						c1.67-1.107,3.747-0.499,3.835-0.44C695.915,809.811,695.993,809.828,696.065,809.815z"/>
				</g>
			</g>
			<g>
				<path style="fill:#080435;" d="M691.936,814.456c-0.134,1.072,0.388,2.021,1.166,2.118c0.778,0.097,1.518-0.693,1.652-1.765
					c0.134-1.072-0.388-2.021-1.166-2.118C692.809,812.594,692.07,813.384,691.936,814.456z"/>
			</g>
			<g>
				<path style="fill:#5C305D;" d="M641.103,808.199c0,0,7.467,16.116,18.057,17.298c0,0-8.563-12.282,9.486-19.767
					C668.646,805.731,652.074,803.124,641.103,808.199z"/>
			</g>
			<g>
				<path style="fill:#FFB27D;" d="M656.033,817.093c2.265,1.441,5.145,0.969,6.433-1.055c1.288-2.024,0.495-4.833-1.769-6.274
					c-2.265-1.441-5.145-0.969-6.433,1.056C652.975,812.843,653.768,815.652,656.033,817.093z"/>
			</g>
			<g>
				<path style="fill:#5C305D;" d="M668.646,805.731c0,0-1.445,13.524,1.307,16.081c2.753,2.557,20.928,3.657,29.411,0.379l0,0
					c0.141,8.686-5.981,16.354-14.548,17.793c-2.834,0.476-5.766,0.479-8.678-0.03l0,0c-5.938-1.038-11.711-3.494-14.159-9.002
					c-0.745-1.676,1.422-11.987,1.422-11.987s0.814-6.052-2.706-9.2C660.696,809.764,664.76,806.111,668.646,805.731z"/>
			</g>
			<g>
				<path style="fill:#331832;" d="M668.646,805.731c0,0-1.493-9.457,5.921-10.131c7.414-0.674,15.869-1.921,18.778,0
					c2.908,1.921,6.383,9.462,6.383,9.462s4.067-14.179-3.386-20.245c-7.453-6.066-31.21-14.048-46.374-3.485
					c-15.164,10.562-8.864,26.868-8.864,26.868S651.934,804.898,668.646,805.731z"/>
			</g>
			<g>
				<path style="fill:#331832;" d="M658.364,781.331c0,0-11.177-9.231-8.65-16.057c2.527-6.826,14.358-4.665,18.932-3.597
					c4.573,1.068,5.346,9.233,1.674,14.502C666.648,781.447,658.364,781.331,658.364,781.331z"/>
			</g>
			<g>
				<path style="fill:#331832;" d="M675.576,1359.717c5.363-0.293,10.341,2.486,12.973,7.167c1.237,2.201,3.04,4.2,5.664,5.294
					c8.069,3.364,31.448,6.4,22.712,14.066c-5.013,4.399-28.637,1.556-35.306,1.556c-6.67,0-12.933,2.906-17.889-1.558
					c-2.969-2.674-2.705-11.138-1.848-18.294c0.618-5.162,5.276-8.987,10.433-8.326c0.781,0.1,1.571,0.15,2.347,0.13
					C674.974,1359.745,675.278,1359.733,675.576,1359.717z"/>
			</g>
			<g>
				<path style="fill:#331832;" d="M593.18,1356.887c0,0,0.299,11.925,8.367,15.289c8.069,3.364,31.448,6.4,22.712,14.066
					c-5.013,4.399-28.637,1.556-35.306,1.556c-6.671,0-12.933,2.906-17.889-1.558c-5.453-4.911,0.001-29.354,0.001-29.354
					s5.756,2.998,10.932,2.864C589.456,1359.557,593.18,1356.887,593.18,1356.887z"/>
			</g>
			<g>
				<path style="fill:#366F90;" d="M735.864,1056.922c3.647,0.389,6.537,3.237,6.977,6.878c0.878,7.259,1.021,22.593-3.329,54.411
					c-6.391,46.743-30.553,217.318-34.567,240.052c-1.436,8.132-3.079,13.138-14.866,14.852l-15.655-0.308
					c-12.745,1.854-17.654-11.828-17.744-20.58l10.249-262.76l-40.74-31.082c0,0,30.491-3.897,64.96-3.87
					C710.619,1054.532,727.6,1056.041,735.864,1056.922z"/>
			</g>
			<g>
				<path style="fill:#366F90;" d="M697.53,1065.641l-89.795,288.452c-3.759,12.074-14.629,20.347-27.012,20.559l-5.398,0.092
					c-12.743,0.218-22.485-11.566-20.161-24.387l49.121-271.038c0.713-3.222,2.539-17.461,5.647-18.357
					C626.773,1056.104,699.183,1053.711,697.53,1065.641z"/>
			</g>
			<g>
				<path style="fill:#020202;" d="M657.397,1194.568l-1.435-0.473l19.311-58.706c4.459-13.556,13.634-24.87,25.834-31.86
					l0.751,1.31c-11.875,6.805-20.807,17.822-25.15,31.023L657.397,1194.568z"/>
			</g>
			<g>
				<path style="fill:#92BCB5;" d="M635.189,861.754c0,0-9.371-8.656,1.898-11.709c4.455-1.207,11.095-12.207,17.292-11.258
					c6.197,0.949,9.85,35.837,34.716,46.628c0,0,6.122,5.333-3.843,5.096C675.287,890.273,635.189,861.754,635.189,861.754z"/>
			</g>
			<g>
				<path style="fill:#92BCB5;" d="M689.095,885.414c0,0,12.443-12.239,10.271-23.66c-2.172-11.421,4.155-21.19,7.24-16.029
					c3.084,5.161,6.646,1.954,7.355,8.422c0.709,6.468-8.902,38.261-17.62,38.261C687.625,892.409,689.095,885.414,689.095,885.414z
					"/>
			</g>
			<g>
				<path style="fill:#92BCB5;" d="M686.28,887.821c0,0-8.043,3.616-5.062,12.18c2.982,8.563-1.188,12.021-1.188,12.021
					s9.748,0.474,10.925-8.7C692.133,894.148,686.28,887.821,686.28,887.821z"/>
			</g>
			<g>
				<path style="fill:#92BCB5;" d="M690.847,887.821c0,0,10.213,3.48,10.653,10.123c0.44,6.643-5.413,8.225-7.469,4.271
					s-6.327-11.697-6.327-11.697L690.847,887.821z"/>
			</g>
			<g>
				<path style="fill:#5C305D;" d="M661.979,830.951c0,0,0.072,9.299,6.667,14.522c6.595,5.223,2.232,9.772,8.036,17.186
					c5.804,7.414-1.104,7.582,9.174,12.974c10.278,5.392,18.029,0.505,16.007-7.751c-2.022-8.256,6.908-6.066,2.696-16.512
					c-4.212-10.447-7.278-4.044-3.723-15.164s-1.471-14.016-1.471-14.016s-5.681,0.389-10.269,1.21
					c-4.588,0.821-8.711-0.622-11.915,0.405C673.977,824.833,661.979,830.951,661.979,830.951z"/>
			</g>
			<g>
				<path style="fill:#FFFFFF;" d="M694.887,827.069c0,0-6.964,1.885-14.573,1.148c0,0,1.117,7.046,8.816,5.642
					C693.607,833.042,694.887,827.069,694.887,827.069z"/>
			</g>
			<g>
				<path style="fill:#331832;" d="M537.578,1056.976c0,0,23.469,2.516,35.627,0c0,0,1.578,6.249-0.962,9.103
					c0,0-28.118,2.128-34.666,0C537.578,1066.079,532.737,1061.39,537.578,1056.976z"/>
			</g>
			<g>
				<path style="fill:#5C305D;" d="M552.795,1071.257h-0.372c-4.635,0-8.427-3.792-8.427-8.427v-1.659
					c0-4.635,3.792-8.427,8.427-8.427h0.372c4.635,0,8.427,3.792,8.427,8.427v1.659
					C561.222,1067.465,557.43,1071.257,552.795,1071.257z"/>
			</g>
			<g>
				<path style="fill:#92A5E6;" d="M583.244,882.484c0,0-19.894,11.772-39.247,89.089c-19.353,77.317-4.809,78.72-4.809,78.72
					s26.106,0.502,34.503-2.492c8.396-2.995,12.888-72.28,29.631-100.458C620.064,919.166,626.055,876.021,583.244,882.484z"/>
			</g>
			<g>
				<path style="fill:#5C305D;" d="M691.112,937.845c0-1.637,1.327-2.964,2.964-2.964c1.637,0,2.964,1.327,2.964,2.964
					c0,1.637-1.327,2.964-2.964,2.964C692.439,940.809,691.112,939.482,691.112,937.845z"/>
			</g>
			<g>
				<path style="fill:#5C305D;" d="M691.112,973.959c0-1.637,1.327-2.964,2.964-2.964c1.637,0,2.964,1.327,2.964,2.964
					c0,1.637-1.327,2.964-2.964,2.964C692.439,976.923,691.112,975.596,691.112,973.959z"/>
			</g>
			<g>
				<circle style="fill:#5C305D;" cx="694.076" cy="1016.765" r="2.964"/>
			</g>
			<g>
				<g>
					<path style="fill:#68A1BF;" d="M593.418,975.15l-1.468-0.357c5.692-24.17,15.48-46.719,15.582-46.949l1.378,0.613
						C608.815,928.673,599.078,951.108,593.418,975.15z"/>
				</g>
			</g>
			<g>
				<g>
					<path style="fill:#68A1BF;" d="M755.258,971.041c-1.653-26.901-15.02-61.459-15.154-61.803l1.404-0.549
						c0.14,0.344,13.591,35.119,15.256,62.25L755.258,971.041z"/>
				</g>
			</g>
		</g>
	</g>
	<g>
		<g>
			<path style="fill:#DAEBE8;" d="M2126.344,551.073c0-10.194,7.865-18.732,18.99-18.732c11.125,0,18.887,8.435,18.887,18.732
				c0,10.194-7.866,18.732-18.99,18.732C2134.105,569.805,2126.344,561.37,2126.344,551.073z M2157.546,551.073
				c0-7.037-5.123-12.884-12.315-12.884c-7.193,0-12.211,5.743-12.211,12.884c0,7.038,5.122,12.885,12.315,12.885
				C2152.526,563.957,2157.546,558.214,2157.546,551.073z"/>
		</g>
		<g>
			<path style="fill:#DAEBE8;" d="M2171.928,532.963h14.281c8.435,0,13.764,4.812,13.764,12.211c0,8.124-6.52,12.367-14.488,12.367
				h-7.193v11.642h-6.365V532.963z M2185.692,551.797c4.813,0,7.814-2.691,7.814-6.572c0-4.243-3.053-6.468-7.814-6.468h-7.399
				v13.039H2185.692z"/>
		</g>
		<g>
			<path style="fill:#DAEBE8;" d="M2206.492,532.963h26.856v5.692h-20.491v9.418h18.163v5.691h-18.163v9.728h20.75v5.692h-27.115
				V532.963z"/>
		</g>
		<g>
			<path style="fill:#DAEBE8;" d="M2241.159,532.963h5.899l19.404,25.044v-25.044h6.261v36.221h-5.33l-19.973-25.769v25.769h-6.261
				V532.963z"/>
		</g>
		<g>
			<path style="fill:#DAEBE8;" d="M2282.398,532.963h6.365v36.221h-6.365V532.963z"/>
		</g>
		<g>
			<path style="fill:#DAEBE8;" d="M2298.437,532.963h5.899l19.404,25.044v-25.044h6.261v36.221h-5.33l-19.973-25.769v25.769h-6.261
				V532.963z"/>
		</g>
		<g>
			<path style="fill:#DAEBE8;" d="M2337.709,551.073c0-10.141,7.761-18.732,18.679-18.732c6.313,0,10.194,1.76,13.919,4.916
				l-4.036,4.813c-2.794-2.38-5.537-3.881-10.143-3.881c-6.674,0-11.745,5.847-11.745,12.884c0,7.451,4.915,12.936,12.315,12.936
				c3.415,0,6.52-1.087,8.744-2.742v-6.778h-9.262v-5.536h15.42v15.213c-3.57,3.053-8.693,5.64-15.109,5.64
				C2345.161,569.805,2337.709,561.732,2337.709,551.073z"/>
		</g>
	</g>
</g>
</svg>
